<?xml version="1.0" encoding="UTF-8" standalone="no"?>
<svg
   xmlns:sketch="http://www.bohemiancoding.com/sketch/ns"
   xmlns:dc="http://purl.org/dc/elements/1.1/"
   xmlns:cc="http://creativecommons.org/ns#"
   xmlns:rdf="http://www.w3.org/1999/02/22-rdf-syntax-ns#"
   xmlns:svg="http://www.w3.org/2000/svg"
   xmlns="http://www.w3.org/2000/svg"
   xmlns:sodipodi="http://sodipodi.sourceforge.net/DTD/sodipodi-0.dtd"
   xmlns:inkscape="http://www.inkscape.org/namespaces/inkscape"
   viewBox="0 0 57 52"
   version="1.1"
   x="0px"
   y="0px"
   id="svg78"
   sodipodi:docname="castle4.svg"
   width="57"
   height="52"
   inkscape:version="0.92.3 (2405546, 2018-03-11)">
  <metadata
     id="metadata84">
    <rdf:RDF>
      <cc:Work
         rdf:about="">
        <dc:format>image/svg+xml</dc:format>
        <dc:type
           rdf:resource="http://purl.org/dc/dcmitype/StillImage" />
        <dc:title>buildings-57</dc:title>
      </cc:Work>
    </rdf:RDF>
  </metadata>
  <defs
     id="defs82" />
  <sodipodi:namedview
     pagecolor="#ffffff"
     bordercolor="#666666"
     borderopacity="1"
     objecttolerance="10"
     gridtolerance="10"
     guidetolerance="10"
     inkscape:pageopacity="0"
     inkscape:pageshadow="2"
     inkscape:window-width="1920"
     inkscape:window-height="1017"
     id="namedview80"
     showgrid="false"
     fit-margin-top="0"
     fit-margin-left="0"
     fit-margin-right="0"
     fit-margin-bottom="0"
     inkscape:zoom="13.046154"
     inkscape:cx="28.5"
     inkscape:cy="25.632075"
     inkscape:window-x="-8"
     inkscape:window-y="-8"
     inkscape:window-maximized="1"
     inkscape:current-layer="svg78" />
  <title
     id="title48">buildings-57</title>
  <desc
     id="desc50">Created with Sketch.</desc>
  <g
     sketch:type="MSPage"
     id="g72"
     style="fill:none;fill-rule:evenodd;stroke:none;stroke-width:1">
    <g
       sketch:type="MSLayerGroup"
       id="g70"
       style="fill:#000000">
      <path
         d="M 14,12 H 44 V 52 H 14 Z m 2,38 H 42 V 14 H 16 Z"
         sketch:type="MSShapeGroup"
         id="path52"
         inkscape:connector-curvature="0" />
      <path
         d="M 47,14 H 11 V 0 h 8 v 5 h 2 V 0 h 7 v 5 h 2 V 0 h 7 v 5 h 2 V 0 h 8 z M 13,12 H 45 V 2 H 41 V 7 H 35 V 2 H 32 V 7 H 26 V 2 H 23 V 7 H 17 V 2 h -4 z"
         sketch:type="MSShapeGroup"
         id="path54"
         inkscape:connector-curvature="0" />
      <path
         d="m 27,27 h -9 v -6.5 c 0,-2.481 2.018,-4.5 4.5,-4.5 2.481,0 4.5,2.019 4.5,4.5 z m -7,-2 h 5 V 20.5 C 25,19.121 23.879,18 22.5,18 21.121,18 20,19.121 20,20.5 Z"
         sketch:type="MSShapeGroup"
         id="path56"
         inkscape:connector-curvature="0" />
      <path
         d="m 40,27 h -9 v -6.5 c 0,-2.481 2.019,-4.5 4.5,-4.5 2.481,0 4.5,2.019 4.5,4.5 z m -7,-2 h 5 V 20.5 C 38,19.121 36.879,18 35.5,18 34.121,18 33,19.121 33,20.5 Z"
         sketch:type="MSShapeGroup"
         id="path58"
         inkscape:connector-curvature="0" />
      <path
         d="M 37,52 H 21 V 39 c 0,-4.411 3.589,-8 8,-8 4.411,0 8,3.589 8,8 z M 23,50 H 35 V 39 c 0,-3.308 -2.691,-6 -6,-6 -3.309,0 -6,2.692 -6,6 z"
         sketch:type="MSShapeGroup"
         id="path60"
         inkscape:connector-curvature="0" />
      <path
         d="M 6,52 C 5.447,52 5,51.552 5,51 V 27 c 0,-0.552 0.447,-1 1,-1 0.553,0 1,0.448 1,1 v 24 c 0,0.552 -0.447,1 -1,1"
         sketch:type="MSShapeGroup"
         id="path62"
         inkscape:connector-curvature="0" />
      <path
         d="m 6,35 c -3.309,0 -6,-3.589 -6,-8 0,-4.411 2.691,-8 6,-8 3.309,0 6,3.589 6,8 0,4.411 -2.691,8 -6,8 z M 6,21 c -2.168,0 -4,2.748 -4,6 0,3.252 1.832,6 4,6 2.168,0 4,-2.748 4,-6 0,-3.252 -1.832,-6 -4,-6 z"
         sketch:type="MSShapeGroup"
         id="path64"
         inkscape:connector-curvature="0" />
      <path
         d="m 51,52 c -0.553,0 -1,-0.448 -1,-1 V 34 c 0,-0.552 0.447,-1 1,-1 0.553,0 1,0.448 1,1 v 17 c 0,0.552 -0.447,1 -1,1"
         sketch:type="MSShapeGroup"
         id="path66"
         inkscape:connector-curvature="0" />
      <path
         d="m 51,39 c -3.309,0 -6,-2.692 -6,-6 0,-3.308 2.691,-6 6,-6 3.309,0 6,2.692 6,6 0,3.308 -2.691,6 -6,6 z m 0,-10 c -2.206,0 -4,1.794 -4,4 0,2.206 1.794,4 4,4 2.206,0 4,-1.794 4,-4 0,-2.206 -1.794,-4 -4,-4 z"
         sketch:type="MSShapeGroup"
         id="path68"
         inkscape:connector-curvature="0" />
    </g>
  </g>
  <path
     style="fill:#008000;stroke:#000000;stroke-width:0.22060141;stroke-linejoin:round;stroke-miterlimit:4;stroke-dasharray:none;stroke-opacity:1"
     d="M 5.3694522,51.676302 5.0831368,51.413925 5.0629683,43.148279 5.0427998,34.882632 4.5264117,34.703435 C 2.365808,33.953658 0.68002874,31.629763 0.18530714,28.719099 0.02907772,27.799933 0.02656414,26.182313 0.17998397,25.293354 0.68422147,22.371655 2.2866915,20.142335 4.4897396,19.29772 c 0.4600865,-0.17639 0.6260056,-0.198112 1.5132085,-0.198112 0.8872029,0 1.053122,0.02172 1.5132085,0.198112 0.7883089,0.302226 1.3355514,0.659361 1.9777928,1.290723 1.2801136,1.258431 2.0832806,2.96381 2.3792766,5.051964 0.152741,1.077532 0.05327,2.776068 -0.226366,3.865514 -0.270337,1.053201 -0.877716,2.377743 -1.41622,3.088425 -0.7595678,1.002427 -1.7515276,1.759193 -2.7734085,2.115833 l -0.494135,0.172453 -0.020169,8.265647 -0.020168,8.265646 -0.2863154,0.262377 c -0.2378619,0.217975 -0.3450691,0.262377 -0.6334959,0.262377 -0.2884268,0 -0.395634,-0.0444 -0.633496,-0.262377 z M 5.1838425,26.505627 c 0.1374387,-0.24097 0.5404767,-0.474394 0.8191056,-0.474394 0.278629,0 0.6816669,0.233424 0.8191056,0.474394 0.076694,0.134466 0.109844,0.912357 0.1390312,3.262451 l 0.038326,3.085885 0.3296019,-0.176344 C 9.02946,31.767844 10.148095,29.202153 10.003411,26.54364 9.8723437,24.135318 8.7605524,22.026384 7.2229373,21.269419 5.629641,20.485042 3.8826729,21.311332 2.828594,23.347877 c -1.4315436,2.765831 -1.0015525,6.665573 0.9510803,8.625684 0.2953242,0.296456 0.6921712,0.615476 0.8818823,0.708934 l 0.3449292,0.169925 0.038326,-3.085114 c 0.029187,-2.349455 0.062339,-3.127216 0.1390307,-3.261679 z"
     id="path94"
     inkscape:connector-curvature="0" />
  <path
     style="fill:#008000;stroke:#000000;stroke-width:0.22060141;stroke-linejoin:round;stroke-miterlimit:4;stroke-dasharray:none;stroke-opacity:1"
     d="m 50.363556,51.676316 -0.286315,-0.262364 -0.03833,-6.266083 -0.03833,-6.266083 -0.459906,-0.104042 c -0.659295,-0.149148 -1.7574,-0.709587 -2.34435,-1.196483 -0.970101,-0.804733 -1.691005,-1.975878 -1.992598,-3.237073 -0.230506,-0.963927 -0.18289,-2.256047 0.115699,-3.139589 0.549545,-1.626133 1.551771,-2.777623 3.071485,-3.528924 1.141065,-0.564109 2.234039,-0.748615 3.413244,-0.576193 2.461995,0.359992 4.374242,2.094946 4.989153,4.52659 0.232223,0.918317 0.181106,2.296454 -0.117993,3.181121 -0.541403,1.601347 -1.589649,2.805694 -3.07214,3.529633 -0.379422,0.185282 -0.896816,0.383695 -1.149764,0.440918 l -0.459906,0.104042 -0.03833,6.241006 c -0.03201,5.211994 -0.05624,6.267969 -0.147002,6.404541 -0.166821,0.251035 -0.495457,0.411346 -0.84325,0.411346 -0.251856,0 -0.372508,-0.05264 -0.601381,-0.262363 z M 50.038915,35.374497 c 0,-1.684094 0.04925,-1.925966 0.444984,-2.18526 0.262944,-0.172287 0.768492,-0.168926 1.036827,0.0069 0.401268,0.262921 0.434463,0.42711 0.434463,2.148978 v 1.580316 l 0.172464,-0.05023 c 0.610241,-0.177724 1.183497,-0.532425 1.700891,-1.052421 0.875623,-0.880028 1.244574,-1.838401 1.172956,-3.046833 -0.089,-1.501756 -0.895574,-2.71739 -2.241476,-3.378261 -1.84393,-0.905416 -3.983937,-0.313096 -5.14358,1.423662 -1.175767,1.760906 -0.667963,4.27717 1.110044,5.500471 0.311223,0.214127 1.101534,0.586605 1.254939,0.59146 0.03162,10e-4 0.05749,-0.691449 0.05749,-1.538778 z"
     id="path96"
     inkscape:connector-curvature="0" />
  <path
     style="fill:#008000;stroke:#000000;stroke-width:0.22060141;stroke-linejoin:round;stroke-miterlimit:4;stroke-dasharray:none;stroke-opacity:1"
     d="M 4.6998824,32.528643 C 4.3657592,32.346728 3.806341,31.823003 3.4649269,31.372483 3.0010325,30.760341 2.627926,29.953437 2.3813918,29.02916 2.2096716,28.385367 2.1840503,28.13147 2.1793611,27.027123 c -0.00648,-1.526274 0.1400103,-2.219324 0.7209812,-3.410967 0.4608419,-0.945243 0.9340402,-1.543615 1.5414901,-1.949254 1.067861,-0.71309 2.054371,-0.71309 3.1222319,0 0.883476,0.589962 1.6697434,1.864418 2.0537877,3.328971 0.2613353,0.996603 0.2969243,2.692621 0.077897,3.712268 -0.3563644,1.659001 -1.295241,3.181139 -2.3304017,3.778126 L 7.1366302,32.618169 7.0968717,29.688507 C 7.0513193,26.33191 7.048331,26.314085 6.4854633,26.041606 c -0.4233959,-0.204963 -0.541634,-0.204963 -0.9650298,0 -0.5604307,0.2713 -0.5639915,0.292257 -0.6191152,3.643871 -0.047635,2.896315 -0.049722,2.925767 -0.2014359,2.843166 z"
     id="path128"
     inkscape:connector-curvature="0" />
  <path
     style="fill:#008000;stroke:#000000;stroke-width:0.22060141;stroke-linejoin:round;stroke-miterlimit:4;stroke-dasharray:none;stroke-opacity:1"
     d="m 49.196811,36.413786 c -1.411083,-0.760282 -2.245813,-2.403811 -2.019327,-3.975926 0.123163,-0.854915 0.453266,-1.488227 1.117664,-2.144277 0.639529,-0.631491 1.181071,-0.924591 2.027075,-1.097116 1.936712,-0.394951 4.018294,0.988169 4.43308,2.945588 0.299193,1.411924 -0.02764,2.529971 -1.037143,3.547927 -0.434948,0.438589 -1.283141,0.99516 -1.516587,0.99516 -0.04807,0 -0.08831,-0.569777 -0.106892,-1.513856 -0.02417,-1.227412 -0.05405,-1.559037 -0.157923,-1.752636 -0.287303,-0.535458 -1.230887,-0.655297 -1.673421,-0.212531 -0.299334,0.29949 -0.377724,0.769154 -0.377724,2.26307 0,0.92259 -0.02312,1.215533 -0.09581,1.214212 -0.0527,-9.57e-4 -0.319542,-0.122284 -0.592988,-0.269615 z"
     id="path130"
     inkscape:connector-curvature="0" />
</svg>
