<?xml version="1.0" encoding="UTF-8" standalone="no"?>
<svg
   xmlns:sketch="http://www.bohemiancoding.com/sketch/ns"
   xmlns:dc="http://purl.org/dc/elements/1.1/"
   xmlns:cc="http://creativecommons.org/ns#"
   xmlns:rdf="http://www.w3.org/1999/02/22-rdf-syntax-ns#"
   xmlns:svg="http://www.w3.org/2000/svg"
   xmlns="http://www.w3.org/2000/svg"
   xmlns:sodipodi="http://sodipodi.sourceforge.net/DTD/sodipodi-0.dtd"
   xmlns:inkscape="http://www.inkscape.org/namespaces/inkscape"
   viewBox="0 0 57 52"
   version="1.1"
   x="0px"
   y="0px"
   id="svg78"
   sodipodi:docname="castle2.svg"
   width="57"
   height="52"
   inkscape:version="0.92.3 (2405546, 2018-03-11)">
  <metadata
     id="metadata84">
    <rdf:RDF>
      <cc:Work
         rdf:about="">
        <dc:format>image/svg+xml</dc:format>
        <dc:type
           rdf:resource="http://purl.org/dc/dcmitype/StillImage" />
        <dc:title>buildings-57</dc:title>
      </cc:Work>
    </rdf:RDF>
  </metadata>
  <defs
     id="defs82" />
  <sodipodi:namedview
     pagecolor="#ffffff"
     bordercolor="#666666"
     borderopacity="1"
     objecttolerance="10"
     gridtolerance="10"
     guidetolerance="10"
     inkscape:pageopacity="0"
     inkscape:pageshadow="2"
     inkscape:window-width="1920"
     inkscape:window-height="1017"
     id="namedview80"
     showgrid="false"
     fit-margin-top="0"
     fit-margin-left="0"
     fit-margin-right="0"
     fit-margin-bottom="0"
     inkscape:zoom="13.046154"
     inkscape:cx="28.5"
     inkscape:cy="25.632075"
     inkscape:window-x="-8"
     inkscape:window-y="-8"
     inkscape:window-maximized="1"
     inkscape:current-layer="svg78" />
  <title
     id="title48">buildings-57</title>
  <desc
     id="desc50">Created with Sketch.</desc>
  <g
     sketch:type="MSPage"
     id="g72"
     style="fill:none;fill-rule:evenodd;stroke:none;stroke-width:1">
    <g
       sketch:type="MSLayerGroup"
       id="g70"
       style="fill:#000000">
      <path
         d="M 14,12 H 44 V 52 H 14 Z m 2,38 H 42 V 14 H 16 Z"
         sketch:type="MSShapeGroup"
         id="path52"
         inkscape:connector-curvature="0" />
      <path
         d="M 47,14 H 11 V 0 h 8 v 5 h 2 V 0 h 7 v 5 h 2 V 0 h 7 v 5 h 2 V 0 h 8 z M 13,12 H 45 V 2 H 41 V 7 H 35 V 2 H 32 V 7 H 26 V 2 H 23 V 7 H 17 V 2 h -4 z"
         sketch:type="MSShapeGroup"
         id="path54"
         inkscape:connector-curvature="0" />
      <path
         d="m 27,27 h -9 v -6.5 c 0,-2.481 2.018,-4.5 4.5,-4.5 2.481,0 4.5,2.019 4.5,4.5 z m -7,-2 h 5 V 20.5 C 25,19.121 23.879,18 22.5,18 21.121,18 20,19.121 20,20.5 Z"
         sketch:type="MSShapeGroup"
         id="path56"
         inkscape:connector-curvature="0" />
      <path
         d="m 40,27 h -9 v -6.5 c 0,-2.481 2.019,-4.5 4.5,-4.5 2.481,0 4.5,2.019 4.5,4.5 z m -7,-2 h 5 V 20.5 C 38,19.121 36.879,18 35.5,18 34.121,18 33,19.121 33,20.5 Z"
         sketch:type="MSShapeGroup"
         id="path58"
         inkscape:connector-curvature="0" />
      <path
         d="M 37,52 H 21 V 39 c 0,-4.411 3.589,-8 8,-8 4.411,0 8,3.589 8,8 z M 23,50 H 35 V 39 c 0,-3.308 -2.691,-6 -6,-6 -3.309,0 -6,2.692 -6,6 z"
         sketch:type="MSShapeGroup"
         id="path60"
         inkscape:connector-curvature="0" />
      <path
         d="M 6,52 C 5.447,52 5,51.552 5,51 V 27 c 0,-0.552 0.447,-1 1,-1 0.553,0 1,0.448 1,1 v 24 c 0,0.552 -0.447,1 -1,1"
         sketch:type="MSShapeGroup"
         id="path62"
         inkscape:connector-curvature="0" />
      <path
         d="m 6,35 c -3.309,0 -6,-3.589 -6,-8 0,-4.411 2.691,-8 6,-8 3.309,0 6,3.589 6,8 0,4.411 -2.691,8 -6,8 z M 6,21 c -2.168,0 -4,2.748 -4,6 0,3.252 1.832,6 4,6 2.168,0 4,-2.748 4,-6 0,-3.252 -1.832,-6 -4,-6 z"
         sketch:type="MSShapeGroup"
         id="path64"
         inkscape:connector-curvature="0" />
      <path
         d="m 51,52 c -0.553,0 -1,-0.448 -1,-1 V 34 c 0,-0.552 0.447,-1 1,-1 0.553,0 1,0.448 1,1 v 17 c 0,0.552 -0.447,1 -1,1"
         sketch:type="MSShapeGroup"
         id="path66"
         inkscape:connector-curvature="0" />
      <path
         d="m 51,39 c -3.309,0 -6,-2.692 -6,-6 0,-3.308 2.691,-6 6,-6 3.309,0 6,2.692 6,6 0,3.308 -2.691,6 -6,6 z m 0,-10 c -2.206,0 -4,1.794 -4,4 0,2.206 1.794,4 4,4 2.206,0 4,-1.794 4,-4 0,-2.206 -1.794,-4 -4,-4 z"
         sketch:type="MSShapeGroup"
         id="path68"
         inkscape:connector-curvature="0" />
    </g>
  </g>
  <path
     style="fill:#ff0000;stroke:#000000;stroke-width:0.22060141;stroke-linejoin:round;stroke-miterlimit:4;stroke-dasharray:none;stroke-opacity:1"
     d="m 18.01572,23.36704 0.02991,-3.583432 0.204832,-0.613207 c 0.50044,-1.498173 1.695861,-2.620033 3.193025,-2.996542 0.676201,-0.170052 1.867791,-0.118255 2.490583,0.108263 1.313835,0.477859 2.309163,1.471204 2.787991,2.782436 l 0.206597,0.565749 0.02326,3.660082 0.02326,3.660083 h -4.494684 -4.494683 z m 7.017207,-0.881486 c -0.03183,-2.98686 -0.04275,-3.041827 -0.743614,-3.74343 -0.579163,-0.579775 -1.118351,-0.787535 -1.926853,-0.742457 -0.963963,0.05375 -1.726331,0.552335 -2.144778,1.402686 -0.18646,0.378916 -0.187746,0.397363 -0.209639,3.00655 l -0.02203,2.625295 h 2.537036 2.537037 z"
     id="path86"
     inkscape:connector-curvature="0" />
  <path
     style="fill:#ff0000;stroke:#000000;stroke-width:0.22060141;stroke-linejoin:round;stroke-miterlimit:4;stroke-dasharray:none;stroke-opacity:1"
     d="m 31.030812,23.520342 c 0.0015,-3.782787 0.02675,-4.054124 0.460765,-4.944255 0.571009,-1.171105 1.65348,-2.061504 2.914021,-2.396963 0.545246,-0.145102 1.607811,-0.143514 2.184135,0.0033 1.519161,0.386898 2.761368,1.61031 3.232019,3.183117 0.105782,0.3535 0.129869,0.971811 0.155886,4.001536 l 0.03077,3.583432 h -4.489464 -4.489465 z m 6.957607,-1.111439 c -0.02189,-2.609187 -0.02318,-2.627634 -0.209639,-3.00655 -0.239412,-0.486523 -0.709389,-0.95641 -1.18864,-1.188411 -0.549003,-0.265768 -1.393159,-0.300719 -1.97352,-0.08171 -0.604191,0.228001 -1.133849,0.724666 -1.409546,1.321739 l -0.222994,0.482938 -0.02385,2.548644 -0.02385,2.548644 h 2.537037 2.537037 z"
     id="path88"
     inkscape:connector-curvature="0" />
  <path
     style="fill:#ff0000;stroke:#000000;stroke-width:0.22060141;stroke-linejoin:round;stroke-miterlimit:4;stroke-dasharray:none;stroke-opacity:1"
     d="m 20.159224,22.332253 c 0.02964,-2.450503 0.03735,-2.561106 0.200421,-2.872279 0.264068,-0.503908 0.600399,-0.839367 1.074548,-1.071761 0.372227,-0.182439 0.530161,-0.213511 1.087033,-0.213862 0.579157,-3.66e-4 0.697074,0.02481 1.061489,0.226663 0.52459,0.290571 1.038058,0.86047 1.156755,1.283883 0.0579,0.20654 0.10816,1.232963 0.135261,2.762332 l 0.04312,2.433668 h -2.394727 -2.394727 z"
     id="path48"
     inkscape:connector-curvature="0" />
  <path
     style="fill:#ff0000;stroke:#000000;stroke-width:0.22060141;stroke-linejoin:round;stroke-miterlimit:4;stroke-dasharray:none;stroke-opacity:1"
     d="m 33.099057,22.458188 v -2.422709 l 0.229352,-0.480566 c 0.247228,-0.518019 0.642372,-0.926107 1.166073,-1.20427 0.459873,-0.24426 1.469842,-0.249958 1.98865,-0.01122 0.432068,0.198823 0.91822,0.670264 1.150041,1.115238 0.165174,0.317048 0.172543,0.421141 0.203724,2.877591 l 0.03235,2.548644 h -2.385096 -2.385095 z"
     id="path50"
     inkscape:connector-curvature="0" />
</svg>
