<?xml version="1.0" encoding="UTF-8"?>
<svg width="375px" height="969px" viewBox="0 0 375 969" version="1.1" xmlns="http://www.w3.org/2000/svg" xmlns:xlink="http://www.w3.org/1999/xlink">
    <!-- Generator: Sketch 51.1 (57501) - http://www.bohemiancoding.com/sketch -->
    <title>3 вариант</title>
    <desc>Created with Sketch.</desc>
    <defs>
        <linearGradient x1="50%" y1="93.1922893%" x2="50%" y2="0%" id="linearGradient-1">
            <stop stop-color="#FFFFFF" stop-opacity="0" offset="0%"></stop>
            <stop stop-color="#FFFFFF" offset="100%"></stop>
        </linearGradient>
    </defs>
    <g id="3-вариант" stroke="none" stroke-width="1" fill="none" fill-rule="evenodd">
        <g id="Untitled-1" transform="translate(438.000000, 195.000000) scale(-1, 1) translate(-438.000000, -195.000000) translate(-103.000000, -224.000000)" stroke="#3535FF">
            <path d="M386.182367,289.984288 C386.182367,289.984288 706.041434,166.885791 669.252532,264.874644 C636.755668,351.635608 549.075451,318.56437 711.968535,472.284383 C755.50207,513.521359 585.659971,549.042318 510.855869,558.841203 C436.051768,568.640088 351.437293,621.104953 331.407779,531.485982 C311.378266,441.86701 386.182367,289.984288 386.182367,289.984288 Z" id="Shape" stroke-opacity="0.682886096"></path>
            <path d="M361.453189,248.869556 C361.453189,248.869556 565.480521,192.317549 640.562579,217.42909 C668.106268,226.616239 686.468728,238.865771 683.204291,264.589789 C677.287498,312.362964 659.945175,319.508525 664.841831,353.194738 C669.53446,385.45184 716.256719,424.854501 760.938704,495.289311 C789.298503,540.000104 613.426944,595.735475 530.183792,598.185382 C446.940641,600.839447 363.085408,629.421689 328.196734,566.949075 C314.934958,543.266646 273.721437,462.011416 296.980553,407.500998 C326.156461,338.4953 361.453189,248.869556 361.453189,248.869556 Z" id="Shape" stroke-opacity="0.686084692"></path>
            <path d="M337.073451,206.818364 C337.073451,206.818364 576.940914,157.863315 649.268922,206.614385 C674.604157,223.748653 695.035798,238.843126 698.509177,263.116672 C705.251618,309.827949 706.88615,312.887639 714.445857,351.8477 C722.618513,394.887348 791.881775,444.658315 811.291834,516.459055 C824.776717,566.637981 642.322165,640.478515 550.175465,635.786989 C458.028765,631.095463 357.709408,644.354123 324.814467,601.110495 C300.296498,594.991114 215.505188,477.091036 250.238978,411.409677 C290.897943,334.713432 337.073451,206.818364 337.073451,206.818364 Z" id="Shape" stroke-opacity="0.694463315"></path>
            <path d="M312.443375,166.250962 C312.443375,166.250962 588.005585,123.592339 657.253613,197.479524 C680.54056,222.38073 703.010422,240.546363 713.019724,263.406487 C732.834056,309.126734 753.465474,308.106193 763.270505,352.60179 C775.11825,406.690475 864.18061,469.147598 860.912266,540.177268 C858.256737,597.531685 670.531258,687.951638 569.825425,675.909251 C469.119591,663.662756 360.855713,657.335401 321.839863,637.128684 C289.3607,646.721772 157.401331,493.43648 203.770955,416.895888 C255.451636,331.986857 312.443375,166.250962 312.443375,166.250962 Z" id="Shape" stroke-opacity="0.684301404"></path>
            <path d="M287.245672,124.510805 C287.245672,124.510805 599.174609,88.175678 664.704183,187.178693 C686.13909,219.635351 710.840269,241.068993 726.967485,262.502636 C760.446769,307.00296 799.233744,302.103842 811.27812,352.115674 C826.997052,416.824861 932.946737,491.944674 909.674552,562.573628 C888.443787,626.670426 698.183467,734.246897 588.763368,714.650424 C479.34327,695.053951 363.390629,669.12945 317.866968,671.783139 C277.242715,697.09525 98.210204,508.479198 156.594809,421.315719 C219.062253,328.028342 287.245672,124.510805 287.245672,124.510805 Z" id="Shape" stroke-opacity="0.675243433"></path>
            <path d="M263.433939,83.230354 C263.433939,83.230354 612.235371,53.03335 673.704476,177.289941 C693.513457,217.280568 720.061575,241.764625 742.321151,261.963973 C789.495116,305.015107 846.675678,296.445687 860.970819,351.73885 C880.575583,427.23136 1002.2885,513.333628 960.219938,584.745462 C919.172463,654.525026 727.209146,780.209853 609.172127,753.27739 C491.135108,726.344927 363.908356,674.928407 315.304878,706.757681 C262.208641,741.647463 40.2255284,523.739353 110.68015,426.007157 C183.9938,324.194285 263.433939,83.230354 263.433939,83.230354 Z" id="Shape" stroke-opacity="0.673658288"></path>
            <path d="M239.019144,42.4011639 C239.019144,42.4011639 624.737188,18.5224206 681.676518,167.917635 C699.839961,215.47103 728.411668,242.819334 756.779291,262.003965 C817.59621,303.230514 893.10715,291.393188 909.637923,352.212551 C933.10754,438.543392 1070.6599,534.262457 1009.43481,608.143697 C948.413811,681.820845 755.350706,827.134223 628.614777,792.846797 C501.878848,758.55937 368.40816,691.004977 312.285164,742.436116 C253.304998,796.52045 -18.1262185,539.568844 64.527648,431.196087 C148.201933,320.986502 239.019144,42.4011639 239.019144,42.4011639 Z" id="Shape" stroke-opacity="0.675639719"></path>
            <path d="M214.041067,0.479175954 C214.041067,0.479175954 637.171027,-16.8727802 689.424413,157.259203 C741.677799,331.391186 930.89221,254.430157 958.243592,351.396971 C985.594974,448.567925 1139.49753,553.087943 1058.87218,630.253113 C978.246841,707.418282 783.317217,873.180498 647.989111,831.331663 C512.661005,789.686968 373.250603,704.968594 308.546214,777.234388 C243.841826,849.500182 -77.230739,554.516928 17.2744088,435.502923 C111.779557,316.488918 214.041067,0.479175954 214.041067,0.479175954 Z" id="Shape" stroke-opacity="0.675130208"></path>
        </g>
        <g id="Untitled-1" transform="translate(-737.000000, 390.000000)" stroke="#3535FF">
            <path d="M361.453189,248.869556 C361.453189,248.869556 565.480521,192.317549 640.562579,217.42909 C668.106268,226.616239 686.468728,238.865771 683.204291,264.589789 C677.287498,312.362964 659.945175,319.508525 664.841831,353.194738 C669.53446,385.45184 716.256719,424.854501 760.938704,495.289311 C789.298503,540.000104 613.426944,595.735475 530.183792,598.185382 C446.940641,600.839447 363.085408,629.421689 328.196734,566.949075 C314.934958,543.266646 273.721437,462.011416 296.980553,407.500998 C326.156461,338.4953 361.453189,248.869556 361.453189,248.869556 Z" id="Shape" stroke-opacity="0.686084692"></path>
            <path d="M337.073451,206.818364 C337.073451,206.818364 576.940914,157.863315 649.268922,206.614385 C674.604157,223.748653 695.035798,238.843126 698.509177,263.116672 C705.251618,309.827949 706.88615,312.887639 714.445857,351.8477 C722.618513,394.887348 791.881775,444.658315 811.291834,516.459055 C824.776717,566.637981 642.322165,640.478515 550.175465,635.786989 C458.028765,631.095463 357.709408,644.354123 324.814467,601.110495 C300.296498,594.991114 215.505188,477.091036 250.238978,411.409677 C290.897943,334.713432 337.073451,206.818364 337.073451,206.818364 Z" id="Shape" stroke-opacity="0.694463315"></path>
            <path d="M312.443375,166.250962 C312.443375,166.250962 588.005585,123.592339 657.253613,197.479524 C680.54056,222.38073 703.010422,240.546363 713.019724,263.406487 C732.834056,309.126734 753.465474,308.106193 763.270505,352.60179 C775.11825,406.690475 864.18061,469.147598 860.912266,540.177268 C858.256737,597.531685 670.531258,687.951638 569.825425,675.909251 C469.119591,663.662756 360.855713,657.335401 321.839863,637.128684 C289.3607,646.721772 157.401331,493.43648 203.770955,416.895888 C255.451636,331.986857 312.443375,166.250962 312.443375,166.250962 Z" id="Shape" stroke-opacity="0.684301404"></path>
            <path d="M287.245672,124.510805 C287.245672,124.510805 599.174609,88.175678 664.704183,187.178693 C686.13909,219.635351 710.840269,241.068993 726.967485,262.502636 C760.446769,307.00296 799.233744,302.103842 811.27812,352.115674 C826.997052,416.824861 932.946737,491.944674 909.674552,562.573628 C888.443787,626.670426 698.183467,734.246897 588.763368,714.650424 C479.34327,695.053951 363.390629,669.12945 317.866968,671.783139 C277.242715,697.09525 98.210204,508.479198 156.594809,421.315719 C219.062253,328.028342 287.245672,124.510805 287.245672,124.510805 Z" id="Shape" stroke-opacity="0.675243433"></path>
            <path d="M263.433939,83.230354 C263.433939,83.230354 612.235371,53.03335 673.704476,177.289941 C693.513457,217.280568 720.061575,241.764625 742.321151,261.963973 C789.495116,305.015107 846.675678,296.445687 860.970819,351.73885 C880.575583,427.23136 1002.2885,513.333628 960.219938,584.745462 C919.172463,654.525026 727.209146,780.209853 609.172127,753.27739 C491.135108,726.344927 363.908356,674.928407 315.304878,706.757681 C262.208641,741.647463 40.2255284,523.739353 110.68015,426.007157 C183.9938,324.194285 263.433939,83.230354 263.433939,83.230354 Z" id="Shape" stroke-opacity="0.673658288"></path>
            <path d="M239.019144,42.4011639 C239.019144,42.4011639 624.737188,18.5224206 681.676518,167.917635 C699.839961,215.47103 728.411668,242.819334 756.779291,262.003965 C817.59621,303.230514 893.10715,291.393188 909.637923,352.212551 C933.10754,438.543392 1070.6599,534.262457 1009.43481,608.143697 C948.413811,681.820845 755.350706,827.134223 628.614777,792.846797 C501.878848,758.55937 368.40816,691.004977 312.285164,742.436116 C253.304998,796.52045 -18.1262185,539.568844 64.527648,431.196087 C148.201933,320.986502 239.019144,42.4011639 239.019144,42.4011639 Z" id="Shape" stroke-opacity="0.675639719"></path>
            <path d="M214.041067,0.479175954 C214.041067,0.479175954 637.171027,-16.8727802 689.424413,157.259203 C741.677799,331.391186 930.89221,254.430157 958.243592,351.396971 C985.594974,448.567925 1139.49753,553.087943 1058.87218,630.253113 C978.246841,707.418282 783.317217,873.180498 647.989111,831.331663 C512.661005,789.686968 373.250603,704.968594 308.546214,777.234388 C243.841826,849.500182 -77.230739,554.516928 17.2744088,435.502923 C111.779557,316.488918 214.041067,0.479175954 214.041067,0.479175954 Z" id="Shape" stroke-opacity="0.675130208"></path>
        </g>
        <rect id="Rectangle-2" fill="url(#linearGradient-1)" x="0" y="0" width="375" height="228"></rect>
        <rect id="Rectangle-2" fill="url(#linearGradient-1)" transform="translate(187.500000, 855.000000) scale(1, -1) translate(-187.500000, -855.000000) " x="0" y="741" width="375" height="228"></rect>
        <circle id="Oval-2" fill="#FFF66E" cx="309.5" cy="143.5" r="16.5"></circle>
        <circle id="Oval-2" fill="#FFF66E" cx="66.5" cy="331.5" r="18.5"></circle>
        <circle id="Oval-2" fill="#E21111" cx="22" cy="212" r="9"></circle>
        <circle id="Oval-2" fill="#FFF66E" cx="365.5" cy="362.5" r="4.5"></circle>
        <circle id="Oval-2" fill="#E21111" cx="240" cy="562" r="7"></circle>
        <circle id="Oval-2" fill="#FFF66E" cx="41.5" cy="841.5" r="4.5"></circle>
        <circle id="Oval-2" fill="#FFF66E" cx="347" cy="496" r="11"></circle>
        <circle id="Oval-2" fill="#FFF66E" cx="65" cy="725" r="24"></circle>
        <g id="house-outline" transform="translate(299.000000, 132.000000)" fill="#4A4A4A" fill-rule="nonzero">
            <path d="M18.3882537,11 C18.0304568,11 17.7533622,11.2872541 17.7533622,11.6616629 L17.7533622,20.6996906 L13.2512047,20.6996906 L13.2512047,17.0090954 C13.2512047,16.6628761 12.9741461,16.3602152 12.6392065,16.3602152 L9.38393874,16.3602152 C9.02585388,16.3602152 8.73745664,16.6628386 8.73745664,17.0090954 L8.73745664,20.6996906 L4.24663778,20.6996906 L4.24663778,11.9617372 C4.24663778,11.6128938 3.96983114,11.3231281 3.61174628,11.3231281 C3.27705861,11.3231281 3,11.6128938 3,11.9617372 L3,21.3613909 C3,21.7101968 3.27705861,22 3.61174628,22 L9.38393874,22 C9.71862641,22 9.99568502,21.7101968 9.99568502,21.3613909 L9.99568502,17.6707583 L12.004279,17.6707583 L12.004279,21.3613909 C12.004279,21.7101968 12.2813376,22 12.6392065,22 L18.3882537,22 C18.7229774,22 19,21.7101968 19,21.3613909 L19,11.6617004 C19,11.2872916 18.7229774,11 18.3882537,11 Z" id="Shape"></path>
            <path d="M21.8204766,11.8186651 L16.8171045,6.23201439 L16.8171045,2.42282174 C16.8171045,2.02629896 16.5288384,1.72006395 16.1714803,1.72006395 C15.8369851,1.72006395 15.5603301,2.02633893 15.5603301,2.42282174 L15.5603301,4.83469225 L11.4330802,0.218784972 C11.3066155,0.076578737 11.1563893,0 11.0065944,0 C10.833685,0 10.6836744,0.0792965627 10.556994,0.218784972 L0.19271219,11.7420863 C-0.055939411,12.0182654 -0.0724035476,12.461271 0.19271219,12.7155875 C0.423174154,13.0109113 0.820146776,12.9917666 1.06879838,12.7155875 L11.0065944,1.69268585 L20.9212759,12.8195044 C21.0245542,12.9343725 21.1748524,13 21.3708762,13 C21.5437856,13 21.6935446,12.9343725 21.8204766,12.8195044 C22.0511542,12.56247 22.0683733,12.0976019 21.8204766,11.8186651 Z" id="Shape"></path>
        </g>
        <g id="building" transform="translate(50.000000, 708.000000)" fill="#000000" fill-rule="nonzero">
            <path d="M23.4666854,29 L8.53331458,29 C8.23893843,29 8,29.2240061 8,29.4999854 L8,30.5000146 C8,30.7759939 8.23893843,31 8.53331458,31 C8.82769073,31 9.06662917,30.7759939 9.06662917,30.5000146 L9.06662917,30.0000293 L23.4666854,30.0000293 C23.7610616,30.0000293 24,29.7760232 24,29.5000439 C24,29.2240647 23.7611241,29 23.4666854,29 Z" id="Shape"></path>
            <path d="M11,13.3750183 C11,13.7199924 11.2240039,14 11.4999805,14 L13.5000195,14 C13.7759961,14 14,13.7199924 14,13.3750183 L14,9.62498169 C14,9.28000762 13.7759961,9 13.5000195,9 L11.5000391,9 C11.2240625,9 11.0000586,9.28000762 11.0000586,9.62498169 L11.0000586,13.3750183 L11,13.3750183 Z M12.0000195,10.2500366 L13.0000391,10.2500366 L13.0000391,12.7500366 L12.0000195,12.7500366 L12.0000195,10.2500366 Z" id="Shape"></path>
            <path d="M7.42859056,6 L0.571409439,6 C0.256005893,6 0,6.2240043 0,6.49998136 L0,16.5000186 C0,16.7759957 0.256005893,17 0.571409439,17 C0.886812984,17 1.14281888,16.7759957 1.14281888,16.5000186 L1.14281888,7.00002131 L7.42859056,7.00002131 C7.74399411,7.00002131 8,6.776017 8,6.50003995 C8,6.2240629 7.74406107,6 7.42859056,6 Z" id="Shape"></path>
            <path d="M25,26.3750183 C25,26.7199924 25.2240083,27 25.4999902,27 L27.5000098,27 C27.7759917,27 28,26.7199924 28,26.3750183 L28,22.6249817 C28,22.2800076 27.7759917,22 27.5000098,22 L25.4999902,22 C25.2240083,22 25,22.2800076 25,22.6249817 L25,26.3750183 Z M26.0000391,23.2500366 L27.0000781,23.2500366 L27.0000781,25.7500366 L26.0000391,25.7500366 L26.0000391,23.2500366 Z" id="Shape"></path>
            <path d="M2.50005855,19 C0.028477007,19 0,25.435 0,25.4999805 C0,26.7074805 0.860521243,27.7169922 2.00001168,27.9494922 L2.00001168,30.5000195 C2.00001168,30.7759961 2.22401909,31 2.49999996,31 C2.77598083,31 2.99998823,30.7759961 2.99998823,30.5000195 L2.99998823,27.9494922 C4.13947867,27.7169922 4.99999991,26.7074805 4.99999991,25.4999805 C5.00005851,25.435 4.9715815,19 2.50005855,19 Z M2.50005855,26.9999805 C1.67305346,26.9999805 1.00003514,26.3269727 1.00003514,25.4999805 C1.00003514,23.0089844 1.66906902,19.9999609 2.50005855,19.9999609 C3.33104808,19.9999609 4.00008196,23.0089844 4.00008196,25.4999805 C4.00008196,26.3269727 3.32706365,26.9999805 2.50005855,26.9999805 Z" id="Shape"></path>
            <path d="M5.50006835,16 L3.49999023,16 C3.22400828,16 3,16.2800035 3,16.6249725 L3,17.8749908 C3,18.2199599 3.22400828,18.4999634 3.49999023,18.4999634 C3.77597218,18.4999634 3.99998046,18.2199599 3.99998046,17.8749908 L3.99998046,17.2500183 L5.00001952,17.2500183 L5.00001952,20.3750275 C5.00001952,20.7199965 5.2240278,21 5.50000976,21 C5.77599171,21 5.99999999,20.7199965 5.99999999,20.3750275 L5.99999999,16.6250458 C6.00005858,16.2800035 5.7760503,16 5.50006835,16 Z" id="Shape"></path>
            <path d="M25.4999902,14 L27.5000098,14 C27.7759917,14 28,13.7199924 28,13.3750183 L28,9.62498169 C28,9.28000762 27.7759917,9 27.5000098,9 L25.4999902,9 C25.2240083,9 25,9.28000762 25,9.62498169 L25,13.3750183 C25,13.7199924 25.2240083,14 25.4999902,14 Z M26.0000391,10.2499634 L27.0000781,10.2499634 L27.0000781,12.7499634 L26.0000391,12.7499634 L26.0000391,10.2499634 Z" id="Shape"></path>
            <path d="M5.50006835,9 L3.49999023,9 C3.22400828,9 3,9.28000762 3,9.62498169 L3,13.3750183 C3,13.7199924 3.22400828,14 3.49999023,14 L5.50000976,14 C5.77599171,14 5.99999999,13.7199924 5.99999999,13.3750183 L5.99999999,9.62498169 C6.00005858,9.28000762 5.7760503,9 5.50006835,9 Z M5.00001952,12.7500366 L4.00003906,12.7500366 L4.00003906,10.2500366 L5.00007812,10.2500366 L5.00007812,12.7500366 L5.00001952,12.7500366 Z" id="Shape"></path>
            <path d="M17,13.3750183 C17,13.7199924 17.2240083,14 17.4999902,14 L19.5000098,14 C19.7759917,14 20,13.7199924 20,13.3750183 L20,9.62498169 C20,9.28000762 19.7759917,9 19.5000098,9 L17.4999902,9 C17.2240083,9 17,9.28000762 17,9.62498169 L17,13.3750183 Z M17.9999805,10.2500366 L19.0000195,10.2500366 L19.0000195,12.7500366 L17.9999805,12.7500366 L17.9999805,10.2500366 Z" id="Shape"></path>
            <path d="M30.4285906,6 L23.5714094,6 C23.2560059,6 23,6.2333374 23,6.52081299 C23,6.80828857 23.2560059,7.04162598 23.5714094,7.04162598 L29.8571811,7.04162598 L29.8571811,27.9708252 C29.6777828,27.9124756 29.4874692,27.875 29.2857717,27.875 C29.1869318,27.875 29.0886277,27.8828125 28.9920647,27.8984375 C28.5977768,27.2510376 27.8475047,26.833313 27.000067,26.833313 C26.1526292,26.833313 25.4023572,27.2510376 25.0080692,27.8984375 C24.9115062,27.8828125 24.8132021,27.875 24.7143622,27.875 C23.769223,27.875 23.000067,28.5760498 23.000067,29.4375 C23.000067,30.2989502 23.769223,31 24.7143622,31 L29.2857047,31 C30.2308439,31 31,30.2989502 31,29.4375 L31,6.52081299 C31,6.2333374 30.7439941,6 30.4285906,6 Z M29.2857047,29.958313 L24.7142283,29.958313 C24.3993605,29.958313 24.1428189,29.7244873 24.1428189,29.4375 C24.1428189,29.1505127 24.3993605,28.916687 24.7142283,28.916687 C24.8239164,28.916687 24.9279125,28.9453125 25.0239399,29.0015869 C25.1805032,29.0932617 25.3759731,29.1099243 25.548541,29.0463867 C25.7211089,28.9828491 25.8485427,28.8463745 25.8902617,28.6812744 C26.010865,28.2067871 26.4674301,27.875 27,27.875 C27.5325699,27.875 27.989135,28.2067871 28.1097383,28.6812744 C28.1514573,28.8463745 28.2788911,28.9828491 28.451459,29.0463867 C28.6234912,29.1099243 28.8194298,29.0932617 28.9760601,29.0015869 C29.3480488,28.7828369 29.8571811,29.0505371 29.8571811,29.4375 C29.8571142,29.7244873 29.6005725,29.958313 29.2857047,29.958313 Z" id="Shape"></path>
            <path d="M17.4999902,8 L19.5000098,8 C19.7759917,8 20,7.71999238 20,7.37501831 L20,3.62498169 C20,3.28000762 19.7759917,3 19.5000098,3 L17.4999902,3 C17.2240083,3 17,3.28000762 17,3.62498169 L17,7.37501831 C17,7.71999238 17.2240083,8 17.4999902,8 Z M17.9999805,4.24996338 L19.0000195,4.24996338 L19.0000195,6.74996338 L17.9999805,6.74996338 L17.9999805,4.24996338 Z" id="Shape"></path>
            <path d="M17,20.3750183 C17,20.7199924 17.2240083,21 17.4999902,21 L19.5000098,21 C19.7759917,21 20,20.7199924 20,20.3750183 L20,16.6249817 C20,16.2800076 19.7759917,16 19.5000098,16 L17.4999902,16 C17.2240083,16 17,16.2800076 17,16.6249817 L17,20.3750183 Z M17.9999805,17.2500366 L19.0000195,17.2500366 L19.0000195,19.7500366 L17.9999805,19.7500366 L17.9999805,17.2500366 Z" id="Shape"></path>
            <path d="M11.4999902,8 L13.5000098,8 C13.7759917,8 14,7.71999238 14,7.37501831 L14,3.62498169 C14,3.28000762 13.7759917,3 13.5000098,3 L11.4999902,3 C11.2240083,3 11,3.28000762 11,3.62498169 L11,7.37501831 C10.9999414,7.71999238 11.2239497,8 11.4999902,8 Z M11.9999805,4.24996338 L13.0000195,4.24996338 L13.0000195,6.74996338 L11.9999805,6.74996338 L11.9999805,4.24996338 Z" id="Shape"></path>
            <path d="M16.2900164,25.2792795 C16.1100305,25.4704183 16,25.7320697 16,25.9937211 C16,26.2553725 16.1100305,26.5169059 16.2900164,26.7081626 C16.4799625,26.8892787 16.7399813,27 17,27 C17.2600187,27 17.5199203,26.8892787 17.7099836,26.7081626 C17.8899695,26.5170238 18,26.2553725 18,25.9937211 C18,25.7320697 17.8899695,25.4705362 17.7099836,25.2792795 C17.3299742,24.9069068 16.6700258,24.9069068 16.2900164,25.2792795 Z" id="Shape"></path>
            <path d="M11,20.3750183 C11,20.7199924 11.2240039,21 11.4999805,21 L13.5000195,21 C13.7759961,21 14,20.7199924 14,20.3750183 L14,16.6249817 C14,16.2800076 13.7759961,16 13.5000195,16 L11.5000391,16 C11.2240625,16 11.0000586,16.2800076 11.0000586,16.6249817 L11.0000586,20.3750183 L11,20.3750183 Z M12.0000195,17.2500366 L13.0000391,17.2500366 L13.0000391,19.7500366 L12.0000195,19.7500366 L12.0000195,17.2500366 Z" id="Shape"></path>
            <path d="M11,22.4999854 C11,22.7759646 11.2464067,22.9999707 11.5499839,22.9999707 L13.2,22.9999707 L13.2,27.5000146 C13.2,27.7759939 13.4464067,28 13.7499839,28 C14.0535611,28 14.2999678,27.7759939 14.2999678,27.5000146 L14.2999678,22.9999707 L18.7000322,22.9999707 L18.7000322,27.5000146 C18.7000322,27.7759939 18.9464389,28 19.2500161,28 C19.5535933,28 19.8,27.7759939 19.8,27.5000146 L19.8,22.9999707 L21.4500161,22.9999707 C21.7535933,22.9999707 22,22.7759646 22,22.4999854 C22,22.2240061 21.7535933,22 21.4500161,22 L11.5499839,22 C11.2464067,22 11,22.2240061 11,22.4999854 Z" id="Shape"></path>
            <path d="M25,20.3750183 C25,20.7199924 25.2240083,21 25.4999902,21 L27.5000098,21 C27.7759917,21 28,20.7199924 28,20.3750183 L28,16.6249817 C28,16.2800076 27.7759917,16 27.5000098,16 L25.4999902,16 C25.2240083,16 25,16.2800076 25,16.6249817 L25,20.3750183 Z M26.0000391,17.2500366 L27.0000781,17.2500366 L27.0000781,19.7500366 L26.0000391,19.7500366 L26.0000391,17.2500366 Z" id="Shape"></path>
            <path d="M21.5000167,0 L8.49998326,0 C8.22400516,0 8,0.232300851 8,0.518499389 L8,27.4815006 C8,27.7676991 8.22400516,28 8.49998326,28 C8.77596136,28 8.99996652,27.7676991 8.99996652,27.4815006 L8.99996652,1.03699878 L21.0000335,1.03699878 L21.0000335,27.4815006 C21.0000335,27.7676991 21.2240386,28 21.5000167,28 C21.7759948,28 22,27.7676991 22,27.4815006 L22,0.518499389 C22.0000586,0.232300851 21.7760534,0 21.5000167,0 Z" id="Shape"></path>
        </g>
        <g id="key-(1)" transform="translate(57.000000, 322.000000)" fill="#000000" fill-rule="nonzero">
            <path d="M13.1336414,0 C9.34749615,0 6.26720339,3.03242187 6.26720339,6.75972656 C6.26720339,7.58835937 6.41675413,8.39359375 6.71204639,9.15828125 L0.146574796,15.6221875 C0.0527335961,15.7146094 0,15.8398828 0,15.9705078 L0,19.5073828 C0,19.7794531 0.224028506,20 0.500393816,20 L3.4610936,20 C3.59366165,20 3.72079366,19.9482422 3.81463486,19.8560156 L4.8123672,18.8752734 C4.90640679,18.7828516 4.95921975,18.6574219 4.95921975,18.5266406 L4.95921975,17.3205469 L6.18280583,17.3205469 C6.45917114,17.3205469 6.68319965,17.1 6.68319965,16.8279297 L6.68319965,16.3451172 L7.17367367,16.3451172 C7.44999931,16.3451172 7.67406749,16.1245703 7.67406749,15.8525 L7.67406749,14.7925 L8.75080102,14.7925 C8.88348812,14.7925 9.01073916,14.7405859 9.10462004,14.6482031 L10.6965874,13.0809766 C11.4734656,13.3719531 12.2915307,13.519375 13.133562,13.519375 C16.9197072,13.519375 20,10.4869531 20,6.75964844 C20.0000397,3.03242187 16.9197866,0 13.1336414,0 Z M13.1336414,12.5341406 C12.3145843,12.5341406 11.5224296,12.3712891 10.77912,12.0500391 C10.5869142,11.9669922 10.3704644,12.0126953 10.2287305,12.1486719 C10.227183,12.1501172 10.2256752,12.1512891 10.2241674,12.1528125 L8.54359648,13.8072656 L7.17375303,13.8072656 C6.89738772,13.8072656 6.67335922,14.0278125 6.67335922,14.2998828 L6.67335922,15.3598828 L6.18288519,15.3598828 C5.90655956,15.3598828 5.68249137,15.5804297 5.68249137,15.8525 L5.68249137,16.3353125 L4.45886561,16.3353125 C4.18253998,16.3353125 3.9584718,16.5558594 3.9584718,16.8279297 L3.9584718,18.3223437 L3.25404777,19.0147266 L1.00086699,19.0147266 L1.00086699,18.3185937 L7.11705152,12.2975 C7.29294921,12.1243359 7.29294921,11.8436328 7.11705152,11.6705078 C6.94115383,11.4973828 6.65609879,11.4973047 6.48008206,11.6705078 L1.00086699,17.0646094 L1.00086699,16.1746094 L7.65490246,9.62351562 C7.65641027,9.62203125 7.65756096,9.62066406 7.65894973,9.61921875 C7.79711255,9.47980469 7.84369588,9.26671875 7.75933799,9.07734375 C7.43333406,8.345625 7.26811006,7.56582031 7.26811006,6.75976562 C7.26811006,3.57570312 9.89943318,0.985273437 13.1337604,0.985273437 C16.3680876,0.985273437 18.9993314,3.57566406 18.9993314,6.75976562 C18.999252,9.94375 16.3678892,12.5341406 13.1336414,12.5341406 Z" id="Shape"></path>
            <path d="M15,3 C13.8971781,3 13,3.89717806 13,5 C13,6.10282194 13.8971781,7 15,7 C16.1028219,7 17,6.10282194 17,5 C17,3.89717806 16.1028643,3 15,3 Z M15,5.9321083 C14.4860385,5.9321083 14.0678917,5.51396151 14.0678917,5 C14.0678917,4.48603849 14.4860385,4.0678917 15,4.0678917 C15.5139615,4.0678917 15.9321083,4.48603849 15.9321083,5 C15.9321083,5.51396151 15.5139615,5.9321083 15,5.9321083 Z" id="Shape"></path>
        </g>
        <g id="horseshoe" transform="translate(340.000000, 490.000000)" fill="#000000" fill-rule="nonzero">
            <path d="M13.7289827,9.60361594 L12.6645157,9.60361594 C13.529555,8.03561156 13.6991537,5.32611976 12.4915078,3.09163128 C11.4151091,1.0979319 9.46344429,0 7.00042621,0 C4.53740791,0 2.58489066,1.0979319 1.50934442,3.09163128 C0.304255134,5.32611976 0.47470622,8.02246268 1.33548431,9.60361594 L0.271017336,9.60361594 C0.12102038,9.60361594 0,9.72113414 0,9.8649499 L0,11.7394878 C0,11.8833036 0.12102038,12 0.271017336,12 L3.94594275,12 C4.09508729,12 4.21695987,11.8833036 4.21695987,11.7394878 C4.21866449,11.721408 4.21866449,11.7041501 4.21695987,11.6868923 L4.21695987,9.85673195 C4.21695987,9.80824539 4.20247158,9.76058079 4.17605161,9.71949043 C3.36299982,8.4514449 3.11925487,5.87426369 4.08400802,4.20271196 C4.69677973,3.15162301 5.67005532,2.61334053 7.00042621,2.61334053 C8.33079688,2.61334053 9.30322027,3.15162301 9.92366222,4.21010815 C10.8892676,5.88001638 10.6591587,8.45966306 9.84610693,9.72606487 C9.81883475,9.76797699 9.80519867,9.81646355 9.80519867,9.8649499 L9.80519867,11.7394878 C9.80519867,11.8833036 9.92621905,12 10.076216,12 L13.7289827,12 C13.8789796,12 14,11.8833036 14,11.7394878 L14,9.8649499 C14,9.72113414 13.8789796,9.60361594 13.7289827,9.60361594 Z M13.4588177,11.4773319 L10.3310402,11.4773319 L10.3310402,9.93809073 C11.2139771,8.50157518 11.4500518,5.78550894 10.3958118,3.95699214 C9.69696217,2.74400762 8.5208499,2.09067262 7.00042621,2.09067262 C5.4791501,2.09067262 4.30388981,2.74400762 3.61271082,3.95699214 C2.55847069,5.78550894 2.79965903,8.50157518 3.67748223,9.93809073 L3.67748223,11.4773319 L0.542034453,11.4773319 L0.542034453,10.1271058 L1.8187132,10.1271058 C1.96785773,10.1254623 2.08887811,10.0095876 2.08887811,9.86412815 C2.08887811,9.81153261 2.071833,9.75975883 2.04029939,9.71620321 C1.07554646,8.38570048 0.783222795,5.56937411 1.98660746,3.33242016 C2.68290009,2.05122596 4.11468922,0.522668022 7.00042621,0.522668022 C9.88616299,0.522668022 11.3170999,2.05122596 12.0133925,3.33242016 C13.2218906,5.56937411 12.9295672,8.38570048 11.9656662,9.71291599 C11.8804407,9.83207769 11.9102697,9.99479523 12.0338467,10.0769758 C12.0790162,10.1073825 12.1327083,10.1238186 12.1872526,10.1238186 L13.4639314,10.1238186 L13.4588177,11.4773319 Z" id="Shape"></path>
        </g>
    </g>
</svg>