<?xml version="1.0" encoding="UTF-8"?>
<svg width="375px" height="969px" viewBox="0 0 375 969" version="1.1" xmlns="http://www.w3.org/2000/svg" xmlns:xlink="http://www.w3.org/1999/xlink">
    <!-- Generator: Sketch 51.1 (57501) - http://www.bohemiancoding.com/sketch -->
    <title>3 вариант</title>
    <desc>Created with Sketch.</desc>
    <defs>
        <linearGradient x1="50%" y1="93.1922893%" x2="50%" y2="0%" id="linearGradient-1">
            <stop stop-color="#FFFFFF" stop-opacity="0" offset="0%"></stop>
            <stop stop-color="#FFFFFF" offset="100%"></stop>
        </linearGradient>
    </defs>
    <g id="3-вариант" stroke="none" stroke-width="1" fill="none" fill-rule="evenodd">
        <g id="Untitled-1" transform="translate(438.000000, 195.000000) scale(-1, 1) translate(-438.000000, -195.000000) translate(-103.000000, -224.000000)" stroke="#3535FF">
            <path d="M386.182367,289.984288 C386.182367,289.984288 706.041434,166.885791 669.252532,264.874644 C636.755668,351.635608 549.075451,318.56437 711.968535,472.284383 C755.50207,513.521359 585.659971,549.042318 510.855869,558.841203 C436.051768,568.640088 351.437293,621.104953 331.407779,531.485982 C311.378266,441.86701 386.182367,289.984288 386.182367,289.984288 Z" id="Shape" stroke-opacity="0.682886096"></path>
            <path d="M361.453189,248.869556 C361.453189,248.869556 565.480521,192.317549 640.562579,217.42909 C668.106268,226.616239 686.468728,238.865771 683.204291,264.589789 C677.287498,312.362964 659.945175,319.508525 664.841831,353.194738 C669.53446,385.45184 716.256719,424.854501 760.938704,495.289311 C789.298503,540.000104 613.426944,595.735475 530.183792,598.185382 C446.940641,600.839447 363.085408,629.421689 328.196734,566.949075 C314.934958,543.266646 273.721437,462.011416 296.980553,407.500998 C326.156461,338.4953 361.453189,248.869556 361.453189,248.869556 Z" id="Shape" stroke-opacity="0.686084692"></path>
            <path d="M337.073451,206.818364 C337.073451,206.818364 576.940914,157.863315 649.268922,206.614385 C674.604157,223.748653 695.035798,238.843126 698.509177,263.116672 C705.251618,309.827949 706.88615,312.887639 714.445857,351.8477 C722.618513,394.887348 791.881775,444.658315 811.291834,516.459055 C824.776717,566.637981 642.322165,640.478515 550.175465,635.786989 C458.028765,631.095463 357.709408,644.354123 324.814467,601.110495 C300.296498,594.991114 215.505188,477.091036 250.238978,411.409677 C290.897943,334.713432 337.073451,206.818364 337.073451,206.818364 Z" id="Shape" stroke-opacity="0.694463315"></path>
            <path d="M312.443375,166.250962 C312.443375,166.250962 588.005585,123.592339 657.253613,197.479524 C680.54056,222.38073 703.010422,240.546363 713.019724,263.406487 C732.834056,309.126734 753.465474,308.106193 763.270505,352.60179 C775.11825,406.690475 864.18061,469.147598 860.912266,540.177268 C858.256737,597.531685 670.531258,687.951638 569.825425,675.909251 C469.119591,663.662756 360.855713,657.335401 321.839863,637.128684 C289.3607,646.721772 157.401331,493.43648 203.770955,416.895888 C255.451636,331.986857 312.443375,166.250962 312.443375,166.250962 Z" id="Shape" stroke-opacity="0.684301404"></path>
            <path d="M287.245672,124.510805 C287.245672,124.510805 599.174609,88.175678 664.704183,187.178693 C686.13909,219.635351 710.840269,241.068993 726.967485,262.502636 C760.446769,307.00296 799.233744,302.103842 811.27812,352.115674 C826.997052,416.824861 932.946737,491.944674 909.674552,562.573628 C888.443787,626.670426 698.183467,734.246897 588.763368,714.650424 C479.34327,695.053951 363.390629,669.12945 317.866968,671.783139 C277.242715,697.09525 98.210204,508.479198 156.594809,421.315719 C219.062253,328.028342 287.245672,124.510805 287.245672,124.510805 Z" id="Shape" stroke-opacity="0.675243433"></path>
            <path d="M263.433939,83.230354 C263.433939,83.230354 612.235371,53.03335 673.704476,177.289941 C693.513457,217.280568 720.061575,241.764625 742.321151,261.963973 C789.495116,305.015107 846.675678,296.445687 860.970819,351.73885 C880.575583,427.23136 1002.2885,513.333628 960.219938,584.745462 C919.172463,654.525026 727.209146,780.209853 609.172127,753.27739 C491.135108,726.344927 363.908356,674.928407 315.304878,706.757681 C262.208641,741.647463 40.2255284,523.739353 110.68015,426.007157 C183.9938,324.194285 263.433939,83.230354 263.433939,83.230354 Z" id="Shape" stroke-opacity="0.673658288"></path>
            <path d="M239.019144,42.4011639 C239.019144,42.4011639 624.737188,18.5224206 681.676518,167.917635 C699.839961,215.47103 728.411668,242.819334 756.779291,262.003965 C817.59621,303.230514 893.10715,291.393188 909.637923,352.212551 C933.10754,438.543392 1070.6599,534.262457 1009.43481,608.143697 C948.413811,681.820845 755.350706,827.134223 628.614777,792.846797 C501.878848,758.55937 368.40816,691.004977 312.285164,742.436116 C253.304998,796.52045 -18.1262185,539.568844 64.527648,431.196087 C148.201933,320.986502 239.019144,42.4011639 239.019144,42.4011639 Z" id="Shape" stroke-opacity="0.675639719"></path>
            <path d="M214.041067,0.479175954 C214.041067,0.479175954 637.171027,-16.8727802 689.424413,157.259203 C741.677799,331.391186 930.89221,254.430157 958.243592,351.396971 C985.594974,448.567925 1139.49753,553.087943 1058.87218,630.253113 C978.246841,707.418282 783.317217,873.180498 647.989111,831.331663 C512.661005,789.686968 373.250603,704.968594 308.546214,777.234388 C243.841826,849.500182 -77.230739,554.516928 17.2744088,435.502923 C111.779557,316.488918 214.041067,0.479175954 214.041067,0.479175954 Z" id="Shape" stroke-opacity="0.675130208"></path>
        </g>
        <g id="Untitled-1" transform="translate(-737.000000, 390.000000)" stroke="#3535FF">
            <path d="M361.453189,248.869556 C361.453189,248.869556 565.480521,192.317549 640.562579,217.42909 C668.106268,226.616239 686.468728,238.865771 683.204291,264.589789 C677.287498,312.362964 659.945175,319.508525 664.841831,353.194738 C669.53446,385.45184 716.256719,424.854501 760.938704,495.289311 C789.298503,540.000104 613.426944,595.735475 530.183792,598.185382 C446.940641,600.839447 363.085408,629.421689 328.196734,566.949075 C314.934958,543.266646 273.721437,462.011416 296.980553,407.500998 C326.156461,338.4953 361.453189,248.869556 361.453189,248.869556 Z" id="Shape" stroke-opacity="0.686084692"></path>
            <path d="M337.073451,206.818364 C337.073451,206.818364 576.940914,157.863315 649.268922,206.614385 C674.604157,223.748653 695.035798,238.843126 698.509177,263.116672 C705.251618,309.827949 706.88615,312.887639 714.445857,351.8477 C722.618513,394.887348 791.881775,444.658315 811.291834,516.459055 C824.776717,566.637981 642.322165,640.478515 550.175465,635.786989 C458.028765,631.095463 357.709408,644.354123 324.814467,601.110495 C300.296498,594.991114 215.505188,477.091036 250.238978,411.409677 C290.897943,334.713432 337.073451,206.818364 337.073451,206.818364 Z" id="Shape" stroke-opacity="0.694463315"></path>
            <path d="M312.443375,166.250962 C312.443375,166.250962 588.005585,123.592339 657.253613,197.479524 C680.54056,222.38073 703.010422,240.546363 713.019724,263.406487 C732.834056,309.126734 753.465474,308.106193 763.270505,352.60179 C775.11825,406.690475 864.18061,469.147598 860.912266,540.177268 C858.256737,597.531685 670.531258,687.951638 569.825425,675.909251 C469.119591,663.662756 360.855713,657.335401 321.839863,637.128684 C289.3607,646.721772 157.401331,493.43648 203.770955,416.895888 C255.451636,331.986857 312.443375,166.250962 312.443375,166.250962 Z" id="Shape" stroke-opacity="0.684301404"></path>
            <path d="M287.245672,124.510805 C287.245672,124.510805 599.174609,88.175678 664.704183,187.178693 C686.13909,219.635351 710.840269,241.068993 726.967485,262.502636 C760.446769,307.00296 799.233744,302.103842 811.27812,352.115674 C826.997052,416.824861 932.946737,491.944674 909.674552,562.573628 C888.443787,626.670426 698.183467,734.246897 588.763368,714.650424 C479.34327,695.053951 363.390629,669.12945 317.866968,671.783139 C277.242715,697.09525 98.210204,508.479198 156.594809,421.315719 C219.062253,328.028342 287.245672,124.510805 287.245672,124.510805 Z" id="Shape" stroke-opacity="0.675243433"></path>
            <path d="M263.433939,83.230354 C263.433939,83.230354 612.235371,53.03335 673.704476,177.289941 C693.513457,217.280568 720.061575,241.764625 742.321151,261.963973 C789.495116,305.015107 846.675678,296.445687 860.970819,351.73885 C880.575583,427.23136 1002.2885,513.333628 960.219938,584.745462 C919.172463,654.525026 727.209146,780.209853 609.172127,753.27739 C491.135108,726.344927 363.908356,674.928407 315.304878,706.757681 C262.208641,741.647463 40.2255284,523.739353 110.68015,426.007157 C183.9938,324.194285 263.433939,83.230354 263.433939,83.230354 Z" id="Shape" stroke-opacity="0.673658288"></path>
            <path d="M239.019144,42.4011639 C239.019144,42.4011639 624.737188,18.5224206 681.676518,167.917635 C699.839961,215.47103 728.411668,242.819334 756.779291,262.003965 C817.59621,303.230514 893.10715,291.393188 909.637923,352.212551 C933.10754,438.543392 1070.6599,534.262457 1009.43481,608.143697 C948.413811,681.820845 755.350706,827.134223 628.614777,792.846797 C501.878848,758.55937 368.40816,691.004977 312.285164,742.436116 C253.304998,796.52045 -18.1262185,539.568844 64.527648,431.196087 C148.201933,320.986502 239.019144,42.4011639 239.019144,42.4011639 Z" id="Shape" stroke-opacity="0.675639719"></path>
            <path d="M214.041067,0.479175954 C214.041067,0.479175954 637.171027,-16.8727802 689.424413,157.259203 C741.677799,331.391186 930.89221,254.430157 958.243592,351.396971 C985.594974,448.567925 1139.49753,553.087943 1058.87218,630.253113 C978.246841,707.418282 783.317217,873.180498 647.989111,831.331663 C512.661005,789.686968 373.250603,704.968594 308.546214,777.234388 C243.841826,849.500182 -77.230739,554.516928 17.2744088,435.502923 C111.779557,316.488918 214.041067,0.479175954 214.041067,0.479175954 Z" id="Shape" stroke-opacity="0.675130208"></path>
        </g>
        <rect id="Rectangle-2" fill="url(#linearGradient-1)" x="0" y="0" width="375" height="228"></rect>
        <rect id="Rectangle-2" fill="url(#linearGradient-1)" transform="translate(187.500000, 855.000000) scale(1, -1) translate(-187.500000, -855.000000) " x="0" y="741" width="375" height="228"></rect>
        <circle id="Oval-2" fill="#FFF66E" cx="309.5" cy="143.5" r="16.5"></circle>
        <circle id="Oval-2" fill="#FFF66E" cx="66.5" cy="331.5" r="18.5"></circle>
        <circle id="Oval-2" fill="#E21111" cx="22" cy="212" r="9"></circle>
        <circle id="Oval-2" fill="#FFF66E" cx="365.5" cy="362.5" r="4.5"></circle>
        <circle id="Oval-2" fill="#E21111" cx="240" cy="562" r="7"></circle>
        <circle id="Oval-2" fill="#FFF66E" cx="41.5" cy="841.5" r="4.5"></circle>
        <circle id="Oval-2" fill="#FFF66E" cx="347" cy="496" r="11"></circle>
        <circle id="Oval-2" fill="#FFF66E" cx="65" cy="725" r="24"></circle>
        <g id="house-outline" transform="translate(299.000000, 132.000000)" fill="#4A4A4A" fill-rule="nonzero">
            <path d="M18.3882537,11 C18.0304568,11 17.7533622,11.2872541 17.7533622,11.6616629 L17.7533622,20.6996906 L13.2512047,20.6996906 L13.2512047,17.0090954 C13.2512047,16.6628761 12.9741461,16.3602152 12.6392065,16.3602152 L9.38393874,16.3602152 C9.02585388,16.3602152 8.73745664,16.6628386 8.73745664,17.0090954 L8.73745664,20.6996906 L4.24663778,20.6996906 L4.24663778,11.9617372 C4.24663778,11.6128938 3.96983114,11.3231281 3.61174628,11.3231281 C3.27705861,11.3231281 3,11.6128938 3,11.9617372 L3,21.3613909 C3,21.7101968 3.27705861,22 3.61174628,22 L9.38393874,22 C9.71862641,22 9.99568502,21.7101968 9.99568502,21.3613909 L9.99568502,17.6707583 L12.004279,17.6707583 L12.004279,21.3613909 C12.004279,21.7101968 12.2813376,22 12.6392065,22 L18.3882537,22 C18.7229774,22 19,21.7101968 19,21.3613909 L19,11.6617004 C19,11.2872916 18.7229774,11 18.3882537,11 Z" id="Shape"></path>
            <path d="M21.8204766,11.8186651 L16.8171045,6.23201439 L16.8171045,2.42282174 C16.8171045,2.02629896 16.5288384,1.72006395 16.1714803,1.72006395 C15.8369851,1.72006395 15.5603301,2.02633893 15.5603301,2.42282174 L15.5603301,4.83469225 L11.4330802,0.218784972 C11.3066155,0.076578737 11.1563893,0 11.0065944,0 C10.833685,0 10.6836744,0.0792965627 10.556994,0.218784972 L0.19271219,11.7420863 C-0.055939411,12.0182654 -0.0724035476,12.461271 0.19271219,12.7155875 C0.423174154,13.0109113 0.820146776,12.9917666 1.06879838,12.7155875 L11.0065944,1.69268585 L20.9212759,12.8195044 C21.0245542,12.9343725 21.1748524,13 21.3708762,13 C21.5437856,13 21.6935446,12.9343725 21.8204766,12.8195044 C22.0511542,12.56247 22.0683733,12.0976019 21.8204766,11.8186651 Z" id="Shape"></path>
        </g>
        <g id="key-(1)" transform="translate(57.000000, 322.000000)" fill="#000000" fill-rule="nonzero">
            <path d="M13.1336414,0 C9.34749615,0 6.26720339,3.03242187 6.26720339,6.75972656 C6.26720339,7.58835937 6.41675413,8.39359375 6.71204639,9.15828125 L0.146574796,15.6221875 C0.0527335961,15.7146094 0,15.8398828 0,15.9705078 L0,19.5073828 C0,19.7794531 0.224028506,20 0.500393816,20 L3.4610936,20 C3.59366165,20 3.72079366,19.9482422 3.81463486,19.8560156 L4.8123672,18.8752734 C4.90640679,18.7828516 4.95921975,18.6574219 4.95921975,18.5266406 L4.95921975,17.3205469 L6.18280583,17.3205469 C6.45917114,17.3205469 6.68319965,17.1 6.68319965,16.8279297 L6.68319965,16.3451172 L7.17367367,16.3451172 C7.44999931,16.3451172 7.67406749,16.1245703 7.67406749,15.8525 L7.67406749,14.7925 L8.75080102,14.7925 C8.88348812,14.7925 9.01073916,14.7405859 9.10462004,14.6482031 L10.6965874,13.0809766 C11.4734656,13.3719531 12.2915307,13.519375 13.133562,13.519375 C16.9197072,13.519375 20,10.4869531 20,6.75964844 C20.0000397,3.03242187 16.9197866,0 13.1336414,0 Z M13.1336414,12.5341406 C12.3145843,12.5341406 11.5224296,12.3712891 10.77912,12.0500391 C10.5869142,11.9669922 10.3704644,12.0126953 10.2287305,12.1486719 C10.227183,12.1501172 10.2256752,12.1512891 10.2241674,12.1528125 L8.54359648,13.8072656 L7.17375303,13.8072656 C6.89738772,13.8072656 6.67335922,14.0278125 6.67335922,14.2998828 L6.67335922,15.3598828 L6.18288519,15.3598828 C5.90655956,15.3598828 5.68249137,15.5804297 5.68249137,15.8525 L5.68249137,16.3353125 L4.45886561,16.3353125 C4.18253998,16.3353125 3.9584718,16.5558594 3.9584718,16.8279297 L3.9584718,18.3223437 L3.25404777,19.0147266 L1.00086699,19.0147266 L1.00086699,18.3185937 L7.11705152,12.2975 C7.29294921,12.1243359 7.29294921,11.8436328 7.11705152,11.6705078 C6.94115383,11.4973828 6.65609879,11.4973047 6.48008206,11.6705078 L1.00086699,17.0646094 L1.00086699,16.1746094 L7.65490246,9.62351562 C7.65641027,9.62203125 7.65756096,9.62066406 7.65894973,9.61921875 C7.79711255,9.47980469 7.84369588,9.26671875 7.75933799,9.07734375 C7.43333406,8.345625 7.26811006,7.56582031 7.26811006,6.75976562 C7.26811006,3.57570312 9.89943318,0.985273437 13.1337604,0.985273437 C16.3680876,0.985273437 18.9993314,3.57566406 18.9993314,6.75976562 C18.999252,9.94375 16.3678892,12.5341406 13.1336414,12.5341406 Z" id="Shape"></path>
            <path d="M15,3 C13.8971781,3 13,3.89717806 13,5 C13,6.10282194 13.8971781,7 15,7 C16.1028219,7 17,6.10282194 17,5 C17,3.89717806 16.1028643,3 15,3 Z M15,5.9321083 C14.4860385,5.9321083 14.0678917,5.51396151 14.0678917,5 C14.0678917,4.48603849 14.4860385,4.0678917 15,4.0678917 C15.5139615,4.0678917 15.9321083,4.48603849 15.9321083,5 C15.9321083,5.51396151 15.5139615,5.9321083 15,5.9321083 Z" id="Shape"></path>
        </g>
        <circle id="Oval-2" fill="#FFF66E" cx="32.5" cy="836.5" r="18.5"></circle>
        <g id="horseshoe" transform="translate(340.000000, 490.000000)" fill="#000000" fill-rule="nonzero">
            <path d="M13.7289827,9.60361594 L12.6645157,9.60361594 C13.529555,8.03561156 13.6991537,5.32611976 12.4915078,3.09163128 C11.4151091,1.0979319 9.46344429,0 7.00042621,0 C4.53740791,0 2.58489066,1.0979319 1.50934442,3.09163128 C0.304255134,5.32611976 0.47470622,8.02246268 1.33548431,9.60361594 L0.271017336,9.60361594 C0.12102038,9.60361594 0,9.72113414 0,9.8649499 L0,11.7394878 C0,11.8833036 0.12102038,12 0.271017336,12 L3.94594275,12 C4.09508729,12 4.21695987,11.8833036 4.21695987,11.7394878 C4.21866449,11.721408 4.21866449,11.7041501 4.21695987,11.6868923 L4.21695987,9.85673195 C4.21695987,9.80824539 4.20247158,9.76058079 4.17605161,9.71949043 C3.36299982,8.4514449 3.11925487,5.87426369 4.08400802,4.20271196 C4.69677973,3.15162301 5.67005532,2.61334053 7.00042621,2.61334053 C8.33079688,2.61334053 9.30322027,3.15162301 9.92366222,4.21010815 C10.8892676,5.88001638 10.6591587,8.45966306 9.84610693,9.72606487 C9.81883475,9.76797699 9.80519867,9.81646355 9.80519867,9.8649499 L9.80519867,11.7394878 C9.80519867,11.8833036 9.92621905,12 10.076216,12 L13.7289827,12 C13.8789796,12 14,11.8833036 14,11.7394878 L14,9.8649499 C14,9.72113414 13.8789796,9.60361594 13.7289827,9.60361594 Z M13.4588177,11.4773319 L10.3310402,11.4773319 L10.3310402,9.93809073 C11.2139771,8.50157518 11.4500518,5.78550894 10.3958118,3.95699214 C9.69696217,2.74400762 8.5208499,2.09067262 7.00042621,2.09067262 C5.4791501,2.09067262 4.30388981,2.74400762 3.61271082,3.95699214 C2.55847069,5.78550894 2.79965903,8.50157518 3.67748223,9.93809073 L3.67748223,11.4773319 L0.542034453,11.4773319 L0.542034453,10.1271058 L1.8187132,10.1271058 C1.96785773,10.1254623 2.08887811,10.0095876 2.08887811,9.86412815 C2.08887811,9.81153261 2.071833,9.75975883 2.04029939,9.71620321 C1.07554646,8.38570048 0.783222795,5.56937411 1.98660746,3.33242016 C2.68290009,2.05122596 4.11468922,0.522668022 7.00042621,0.522668022 C9.88616299,0.522668022 11.3170999,2.05122596 12.0133925,3.33242016 C13.2218906,5.56937411 12.9295672,8.38570048 11.9656662,9.71291599 C11.8804407,9.83207769 11.9102697,9.99479523 12.0338467,10.0769758 C12.0790162,10.1073825 12.1327083,10.1238186 12.1872526,10.1238186 L13.4639314,10.1238186 L13.4588177,11.4773319 Z" id="Shape"></path>
        </g>
        <g id="gift" transform="translate(51.000000, 712.000000)" fill="#000000" fill-rule="nonzero">
            <path d="M27.1875,7.17406114 L21.45275,7.17406114 C21.8641875,6.89469564 22.217625,6.6171325 22.464125,6.36840708 C23.925,4.90669468 23.925,2.52758202 22.464125,1.06586962 C21.0449375,-0.35438855 18.5690625,-0.356190908 17.1480625,1.06586962 C16.36325,1.84989538 14.2770625,5.04187154 14.56525,7.17406114 L14.43475,7.17406114 C14.721125,5.04187154 12.63675,1.84989538 11.8519375,1.06586962 C10.4309375,-0.356190908 7.9550625,-0.35438855 6.535875,1.06586962 C5.075,2.52758202 5.075,4.90669468 6.5340625,6.36840708 C6.782375,6.6171325 7.1358125,6.89469564 7.54725,7.17406114 L1.8125,7.17406114 C0.8138125,7.17406114 0,7.98331992 0,8.97641922 L0,13.4823144 C0,13.9797652 0.406,14.3834935 0.90625,14.3834935 L1.8125,14.3834935 L1.8125,25.1976419 C1.8125,26.1907412 2.6263125,27 3.625,27 L25.375,27 C26.3736875,27 27.1875,26.1907412 27.1875,25.1976419 L27.1875,14.3834935 L28.09375,14.3834935 C28.594,14.3834935 29,13.9797652 29,13.4823144 L29,8.97641922 C29,7.98331992 28.1861875,7.17406114 27.1875,7.17406114 Z M7.8209375,2.33653206 C8.188875,1.96885101 8.6764375,1.76698691 9.1948125,1.76698691 C9.711375,1.76698691 10.1989375,1.96885101 10.566875,2.33653206 C11.7885,3.55853084 13.002875,6.68021503 12.5805625,7.11458333 C12.5805625,7.11458333 12.5044375,7.17406114 12.24525,7.17406114 C10.9928125,7.17406114 8.602125,5.87996804 7.8209375,5.09774464 C7.0615,4.33714953 7.0615,3.09712717 7.8209375,2.33653206 Z M13.59375,25.1976419 L3.625,25.1976419 L3.625,14.3834935 L13.59375,14.3834935 L13.59375,25.1976419 Z M13.59375,12.5811354 L1.8125,12.5811354 L1.8125,8.97641922 L12.24525,8.97641922 L13.59375,8.97641922 L13.59375,12.5811354 Z M18.433125,2.33653206 C19.169,1.60297232 20.445,1.60477468 21.1790625,2.33653206 C21.9385,3.09712717 21.9385,4.33714953 21.1790625,5.09774464 C20.397875,5.87996804 18.0071875,7.17406114 16.75475,7.17406114 C16.4955625,7.17406114 16.4194375,7.11638568 16.417625,7.11458333 C15.997125,6.68021503 17.2115,3.55853084 18.433125,2.33653206 Z M25.375,25.1976419 L15.40625,25.1976419 L15.40625,14.3834935 L25.375,14.3834935 L25.375,25.1976419 Z M27.1875,12.5811354 L15.40625,12.5811354 L15.40625,8.97641922 L16.75475,8.97641922 L27.1875,8.97641922 L27.1875,12.5811354 Z" id="Shape"></path>
        </g>
        <g id="building" transform="translate(21.000000, 824.000000)" fill="#000000" fill-rule="nonzero">
            <path d="M17.6000141,21 L6.39998594,21 C6.17920383,21 6,21.2240061 6,21.4999854 L6,22.5000146 C6,22.7759939 6.17920383,23 6.39998594,23 C6.62076805,23 6.79997187,22.7759939 6.79997187,22.5000146 L6.79997187,22.0000293 L17.6000141,22.0000293 C17.8207962,22.0000293 18,21.7760232 18,21.5000439 C18,21.2240647 17.8208431,21 17.6000141,21 Z" id="Shape"></path>
            <path d="M8,8.75000732 C8,8.88799695 8.14933594,9 8.33332031,9 L9.66667969,9 C9.85066406,9 10,8.88799695 10,8.75000732 L10,7.24999268 C10,7.11200305 9.85066406,7 9.66667969,7 L8.33335937,7 C8.149375,7 8.00003906,7.11200305 8.00003906,7.24999268 L8.00003906,8.75000732 L8,8.75000732 Z M8.66667969,7.50001465 L9.33335938,7.50001465 L9.33335938,8.50001465 L8.66667969,8.50001465 L8.66667969,7.50001465 Z" id="Shape"></path>
            <path d="M5.57144292,5 L0.428557079,5 C0.19200442,5 0,5.16291222 0,5.3636228 L0,12.6363772 C0,12.8370878 0.19200442,13 0.428557079,13 C0.665109738,13 0.857114158,12.8370878 0.857114158,12.6363772 L0.857114158,5.72728822 L5.57144292,5.72728822 C5.80799558,5.72728822 6,5.564376 6,5.36366542 C6,5.16295483 5.8080458,5 5.57144292,5 Z" id="Shape"></path>
            <path d="M18,17.7500073 C18,17.887997 18.1493389,18 18.3333268,18 L19.6666732,18 C19.8506611,18 20,17.887997 20,17.7500073 L20,16.2499927 C20,16.112003 19.8506611,16 19.6666732,16 L18.3333268,16 C18.1493389,16 18,16.112003 18,16.2499927 L18,17.7500073 Z M18.6666927,16.5000146 L19.3333854,16.5000146 L19.3333854,17.5000146 L18.6666927,17.5000146 L18.6666927,16.5000146 Z" id="Shape"></path>
            <path d="M1.50003513,14 C0.0170862042,14 0,18.82625 0,18.8749854 C0,19.7806104 0.516312746,20.5377441 1.20000701,20.7121191 L1.20000701,22.6250146 C1.20000701,22.8319971 1.33441145,23 1.49999997,23 C1.6655885,23 1.79999294,22.8319971 1.79999294,22.6250146 L1.79999294,20.7121191 C2.4836872,20.5377441 2.99999995,19.7806104 2.99999995,18.8749854 C3.0000351,18.82625 2.9829489,14 1.50003513,14 Z M1.50003513,19.9999854 C1.00383207,19.9999854 0.600021084,19.4952295 0.600021084,18.8749854 C0.600021084,17.0067383 1.00144141,14.7499707 1.50003513,14.7499707 C1.99862885,14.7499707 2.40004918,17.0067383 2.40004918,18.8749854 C2.40004918,19.4952295 1.99623819,19.9999854 1.50003513,19.9999854 Z" id="Shape"></path>
            <path d="M3.66671223,12 L2.33332682,12 C2.14933885,12 2,12.1120014 2,12.249989 L2,12.7499963 C2,12.8879839 2.14933885,12.9999854 2.33332682,12.9999854 C2.51731479,12.9999854 2.66665364,12.8879839 2.66665364,12.7499963 L2.66665364,12.5000073 L3.33334635,12.5000073 L3.33334635,13.750011 C3.33334635,13.8879986 3.4826852,14 3.66667317,14 C3.85066114,14 3.99999999,13.8879986 3.99999999,13.750011 L3.99999999,12.2500183 C4.00003906,12.1120014 3.8507002,12 3.66671223,12 Z" id="Shape"></path>
            <path d="M18.3333268,9 L19.6666732,9 C19.8506611,9 20,8.88799695 20,8.75000732 L20,7.24999268 C20,7.11200305 19.8506611,7 19.6666732,7 L18.3333268,7 C18.1493389,7 18,7.11200305 18,7.24999268 L18,8.75000732 C18,8.88799695 18.1493389,9 18.3333268,9 Z M18.6666927,7.49998535 L19.3333854,7.49998535 L19.3333854,8.49998535 L18.6666927,8.49998535 L18.6666927,7.49998535 Z" id="Shape"></path>
            <path d="M3.66671223,7 L2.33332682,7 C2.14933885,7 2,7.11200305 2,7.24999268 L2,8.75000732 C2,8.88799695 2.14933885,9 2.33332682,9 L3.66667317,9 C3.85066114,9 3.99999999,8.88799695 3.99999999,8.75000732 L3.99999999,7.24999268 C4.00003906,7.11200305 3.8507002,7 3.66671223,7 Z M3.33334635,8.50001465 L2.66669271,8.50001465 L2.66669271,7.50001465 L3.33338541,7.50001465 L3.33338541,8.50001465 L3.33334635,8.50001465 Z" id="Shape"></path>
            <path d="M12,8.75000732 C12,8.88799695 12.1493389,9 12.3333268,9 L13.6666732,9 C13.8506611,9 14,8.88799695 14,8.75000732 L14,7.24999268 C14,7.11200305 13.8506611,7 13.6666732,7 L12.3333268,7 C12.1493389,7 12,7.11200305 12,7.24999268 L12,8.75000732 Z M12.6666536,7.50001465 L13.3333464,7.50001465 L13.3333464,8.50001465 L12.6666536,8.50001465 L12.6666536,7.50001465 Z" id="Shape"></path>
            <path d="M22.5714429,5 L17.4285571,5 C17.1920044,5 17,5.16800293 17,5.37498535 C17,5.58196777 17.1920044,5.7499707 17.4285571,5.7499707 L22.1428858,5.7499707 L22.1428858,20.8189941 C22.0083371,20.7769824 21.8656019,20.75 21.7143288,20.75 C21.6401989,20.75 21.5664708,20.755625 21.4940485,20.766875 C21.1983326,20.3007471 20.6356285,19.9999854 20.0000502,19.9999854 C19.3644719,19.9999854 18.8017679,20.3007471 18.5060519,20.766875 C18.4336297,20.755625 18.3599016,20.75 18.2857717,20.75 C17.5769173,20.75 17.0000502,21.2547559 17.0000502,21.875 C17.0000502,22.4952441 17.5769173,23 18.2857717,23 L21.7142785,23 C22.4231329,23 23,22.4952441 23,21.875 L23,5.37498535 C23,5.16800293 22.8079956,5 22.5714429,5 Z M21.7142785,22.2499854 L18.2856712,22.2499854 C18.0495204,22.2499854 17.8571142,22.0816309 17.8571142,21.875 C17.8571142,21.6683691 18.0495204,21.5000146 18.2856712,21.5000146 C18.3679373,21.5000146 18.4459344,21.520625 18.5179549,21.5611426 C18.6353774,21.6271484 18.7819798,21.6391455 18.9114058,21.5933984 C19.0408317,21.5476514 19.136407,21.4493896 19.1676962,21.3305176 C19.2581488,20.9888867 19.6005725,20.75 20,20.75 C20.3994275,20.75 20.7418512,20.9888867 20.8323038,21.3305176 C20.863593,21.4493896 20.9591683,21.5476514 21.0885942,21.5933984 C21.2176184,21.6391455 21.3645723,21.6271484 21.4820451,21.5611426 C21.7610366,21.4036426 22.1428858,21.5963867 22.1428858,21.875 C22.1428356,22.0816309 21.9504294,22.2499854 21.7142785,22.2499854 Z" id="Shape"></path>
            <path d="M12.3333268,4 L13.6666732,4 C13.8506611,4 14,3.88799695 14,3.75000732 L14,2.24999268 C14,2.11200305 13.8506611,2 13.6666732,2 L12.3333268,2 C12.1493389,2 12,2.11200305 12,2.24999268 L12,3.75000732 C12,3.88799695 12.1493389,4 12.3333268,4 Z M12.6666536,2.49998535 L13.3333464,2.49998535 L13.3333464,3.49998535 L12.6666536,3.49998535 L12.6666536,2.49998535 Z" id="Shape"></path>
            <path d="M12,13.7500073 C12,13.887997 12.1493389,14 12.3333268,14 L13.6666732,14 C13.8506611,14 14,13.887997 14,13.7500073 L14,12.2499927 C14,12.112003 13.8506611,12 13.6666732,12 L12.3333268,12 C12.1493389,12 12,12.112003 12,12.2499927 L12,13.7500073 Z M12.6666536,12.5000146 L13.3333464,12.5000146 L13.3333464,13.5000146 L12.6666536,13.5000146 L12.6666536,12.5000146 Z" id="Shape"></path>
            <path d="M8.33332683,4 L9.66667318,4 C9.85066115,4 10,3.88799695 10,3.75000732 L10,2.24999268 C10,2.11200305 9.85066115,2 9.66667318,2 L8.33332683,2 C8.14933886,2 8.00000001,2.11200305 8.00000001,2.24999268 L8.00000001,3.75000732 C7.99996094,3.88799695 8.1492998,4 8.33332683,4 Z M8.66665365,2.49998535 L9.33334636,2.49998535 L9.33334636,3.49998535 L8.66665365,3.49998535 L8.66665365,2.49998535 Z" id="Shape"></path>
            <path d="M12.1450082,18.1396398 C12.0550152,18.2352092 12,18.3660348 12,18.4968605 C12,18.6276862 12.0550152,18.758453 12.1450082,18.8540813 C12.2399813,18.9446393 12.3699906,19 12.5,19 C12.6300094,19 12.7599602,18.9446393 12.8549918,18.8540813 C12.9449848,18.7585119 13,18.6276862 13,18.4968605 C13,18.3660348 12.9449848,18.2352681 12.8549918,18.1396398 C12.6649871,17.9534534 12.3350129,17.9534534 12.1450082,18.1396398 Z" id="Shape"></path>
            <path d="M8,13.7500073 C8,13.887997 8.14933594,14 8.33332031,14 L9.66667969,14 C9.85066406,14 10,13.887997 10,13.7500073 L10,12.2499927 C10,12.112003 9.85066406,12 9.66667969,12 L8.33335937,12 C8.149375,12 8.00003906,12.112003 8.00003906,12.2499927 L8.00003906,13.7500073 L8,13.7500073 Z M8.66667969,12.5000146 L9.33335938,12.5000146 L9.33335938,13.5000146 L8.66667969,13.5000146 L8.66667969,12.5000146 Z" id="Shape"></path>
            <path d="M7,16.4166545 C7,16.6466372 7.15680427,16.8333089 7.34998975,16.8333089 L8.4,16.8333089 L8.4,20.5833455 C8.4,20.8133283 8.55680427,21 8.74998975,21 C8.94317523,21 9.09997949,20.8133283 9.09997949,20.5833455 L9.09997949,16.8333089 L11.9000205,16.8333089 L11.9000205,20.5833455 C11.9000205,20.8133283 12.0568248,21 12.2500103,21 C12.4431957,21 12.6,20.8133283 12.6,20.5833455 L12.6,16.8333089 L13.6500103,16.8333089 C13.8431957,16.8333089 14,16.6466372 14,16.4166545 C14,16.1866717 13.8431957,16 13.6500103,16 L7.34998975,16 C7.15680427,16 7,16.1866717 7,16.4166545 Z" id="Shape"></path>
            <path d="M18,13.7500073 C18,13.887997 18.1493389,14 18.3333268,14 L19.6666732,14 C19.8506611,14 20,13.887997 20,13.7500073 L20,12.2499927 C20,12.112003 19.8506611,12 19.6666732,12 L18.3333268,12 C18.1493389,12 18,12.112003 18,12.2499927 L18,13.7500073 Z M18.6666927,12.5000146 L19.3333854,12.5000146 L19.3333854,13.5000146 L18.6666927,13.5000146 L18.6666927,12.5000146 Z" id="Shape"></path>
            <path d="M17.607156,0 L7.39284399,0 C7.17600405,0 7,0.174225639 7,0.388874542 L7,20.6111255 C7,20.8257744 7.17600405,21 7.39284399,21 C7.60968393,21 7.78568798,20.8257744 7.78568798,20.6111255 L7.78568798,0.777749084 L17.214312,0.777749084 L17.214312,20.6111255 C17.214312,20.8257744 17.3903161,21 17.607156,21 C17.8239959,21 18,20.8257744 18,20.6111255 L18,0.388874542 C18.000046,0.174225639 17.824042,0 17.607156,0 Z" id="Shape"></path>
        </g>
    </g>
</svg>