<?xml version="1.0" encoding="UTF-8" standalone="no"?>
<svg
   xmlns:dc="http://purl.org/dc/elements/1.1/"
   xmlns:cc="http://creativecommons.org/ns#"
   xmlns:rdf="http://www.w3.org/1999/02/22-rdf-syntax-ns#"
   xmlns:svg="http://www.w3.org/2000/svg"
   xmlns="http://www.w3.org/2000/svg"
   xmlns:xlink="http://www.w3.org/1999/xlink"
   xmlns:sodipodi="http://sodipodi.sourceforge.net/DTD/sodipodi-0.dtd"
   xmlns:inkscape="http://www.inkscape.org/namespaces/inkscape"
   width="1440px"
   height="1491px"
   viewBox="0 0 1440 1491"
   version="1.1"
   id="svg388"
   sodipodi:docname="background_start_desktop.svg"
   inkscape:version="0.92.4 (5da689c313, 2019-01-14)">
  <metadata
     id="metadata392">
    <rdf:RDF>
      <cc:Work
         rdf:about="">
        <dc:format>image/svg+xml</dc:format>
        <dc:type
           rdf:resource="http://purl.org/dc/dcmitype/StillImage" />
        <dc:title>Desktop HD</dc:title>
      </cc:Work>
    </rdf:RDF>
  </metadata>
  <sodipodi:namedview
     pagecolor="#ffffff"
     bordercolor="#666666"
     borderopacity="1"
     objecttolerance="10"
     gridtolerance="10"
     guidetolerance="10"
     inkscape:pageopacity="0"
     inkscape:pageshadow="2"
     inkscape:window-width="1920"
     inkscape:window-height="1017"
     id="namedview390"
     showgrid="false"
     inkscape:zoom="0.80432804"
     inkscape:cx="720"
     inkscape:cy="815.4052"
     inkscape:window-x="-8"
     inkscape:window-y="-8"
     inkscape:window-maximized="1"
     inkscape:current-layer="svg388" />
  <!-- Generator: Sketch 51.1 (57501) - http://www.bohemiancoding.com/sketch -->
  <title
     id="title268">Desktop HD</title>
  <desc
     id="desc270">Created with Sketch.</desc>
  <defs
     id="defs277">
    <linearGradient
       x1="50%"
       y1="93.1922893%"
       x2="50%"
       y2="0%"
       id="linearGradient-1">
      <stop
         stop-color="#FFFFFF"
         stop-opacity="0"
         offset="0%"
         id="stop272" />
      <stop
         stop-color="#FFFFFF"
         offset="100%"
         id="stop274" />
    </linearGradient>
    <linearGradient
       inkscape:collect="always"
       xlink:href="#linearGradient-1"
       id="linearGradient426"
       x1="537.99628"
       y1="1922.1537"
       x2="537.99628"
       y2="919.41156"
       gradientTransform="scale(1.3382992,0.74721706)"
       gradientUnits="userSpaceOnUse" />
    <linearGradient
       inkscape:collect="always"
       xlink:href="#linearGradient-1"
       id="linearGradient428"
       x1="534.2602"
       y1="1010.7719"
       x2="534.2602"
       y2="8.0297953"
       gradientTransform="scale(1.3382992,0.74721706)"
       gradientUnits="userSpaceOnUse" />
  </defs>
  <g
     id="Desktop-HD"
     transform="translate(3.729821,7.459643)"
     style="fill:none;fill-rule:evenodd;stroke:none;stroke-width:1">
    <g
       id="Untitled-1"
       transform="matrix(-0.94551858,-0.32556815,-0.32556815,0.94551858,2178.7413,-207.59831)"
       style="stroke:#3535ff">
      <path
         d="m 583.9198,438.40763 c 0,0 483.0425,-186.24226 427.4849,-37.98972 -49.07591,131.26527 -181.48819,81.23004 64.5085,313.80121 65.7432,62.38962 -190.74774,116.13116 -303.71486,130.95641 C 659.23121,860.00079 531.44873,939.37767 501.2007,803.78837 470.95267,668.19906 583.9198,438.40763 583.9198,438.40763 Z"
         id="Shape"
         inkscape:connector-curvature="0"
         style="stroke-opacity:0.6828861" />
      <path
         d="m 546.92537,376.40763 c 0,0 308.5455,-85.46451 422.09024,-47.51456 41.65369,13.88412 69.42279,32.39629 64.48599,71.27184 -8.9478,72.19746 -35.17416,82.99622 -27.7691,133.90468 7.0966,48.74871 77.7535,108.29618 145.325,214.74115 42.8878,67.56941 -223.07844,151.79977 -348.965,155.50221 C 676.20593,908.32392 549.39373,951.51897 496.63245,857.10692 476.577,821.31673 414.25081,698.51935 449.42499,616.1402 493.547,511.85499 546.92537,376.40763 546.92537,376.40763 Z"
         id="path280"
         inkscape:connector-curvature="0"
         style="stroke-opacity:0.6860847" />
      <path
         d="m 509.46446,312.28522 c 0,0 362.65355,-74.05575 472.00565,-0.30857 38.30409,25.91952 69.19459,48.75337 74.44589,85.47268 10.1939,70.66153 12.6651,75.29001 24.0946,134.22604 12.3561,65.10735 117.0747,140.39735 146.4205,249.01245 C 1246.8188,856.59496 970.96736,968.29571 831.65156,961.1987 692.33576,954.10169 540.66379,974.15846 490.93021,908.74255 453.8617,899.48558 325.66645,721.13466 378.18017,621.77653 439.65211,505.75586 509.46446,312.28522 509.46446,312.28522 Z"
         id="path282"
         inkscape:connector-curvature="0"
         style="stroke-opacity:0.69446333" />
      <path
         d="m 472.91777,251.26885 c 0,0 416.46977,-64.54202 521.12748,47.24846 35.19465,37.67525 69.15435,65.15965 84.28185,99.74676 29.9463,69.17423 61.1275,67.63016 75.9463,134.9515 17.9061,81.83558 152.5101,176.33251 147.5705,283.7996 -4.0134,86.7766 -287.7315,223.58093 -439.93287,205.36103 C 709.7097,1003.8473 546.08555,994.27412 487.11912,963.70158 438.03187,978.21582 238.59565,746.29688 308.67618,630.49182 386.78355,502.02541 472.91777,251.26885 472.91777,251.26885 Z"
         id="path284"
         inkscape:connector-curvature="0"
         style="stroke-opacity:0.6843014" />
      <path
         d="m 434.47091,188.05128 c 0,0 471.5515,-54.93731 570.61439,94.75144 32.4037,49.07322 69.7451,81.48006 94.1251,113.8869 50.6116,67.28278 109.2469,59.8755 127.4547,135.49147 23.7627,97.83779 183.9298,211.41606 148.7486,318.20432 C 1343.3185,947.2973 1055.6968,1109.9488 890.28345,1080.3197 724.8701,1050.6906 549.58132,1011.4937 480.76196,1015.506 419.34917,1053.7769 148.70082,768.59671 236.96243,636.80889 331.39617,495.76197 434.47091,188.05128 434.47091,188.05128 Z"
         id="path286"
         inkscape:connector-curvature="0"
         style="stroke-opacity:0.67524342" />
      <path
         d="m 397.8367,125.90752 c 0,0 527.1763,-45.675819 620.0803,142.27401 29.9392,60.4896 70.0639,97.52405 103.7068,128.07747 71.2985,65.11891 157.7208,52.15685 179.3264,135.79298 29.6305,114.18955 213.5866,244.42736 150.0045,352.44451 C 1388.9158,990.04467 1098.7836,1180.1548 920.38323,1139.417 741.98282,1098.6791 549.69311,1020.9067 476.23411,1069.0515 395.9848,1121.8256 60.480911,792.21899 166.96558,644.38981 277.77137,490.38823 397.8367,125.90752 397.8367,125.90752 Z"
         id="path288"
         inkscape:connector-curvature="0"
         style="stroke-opacity:0.6736583" />
      <path
         d="m 361.87743,64.624928 c 0,0 583.39615,-36.119288 669.51657,189.857792 27.4721,71.92987 70.6866,113.29726 113.5925,142.31618 91.9852,62.35979 206.195,44.4545 231.1977,136.45064 35.4976,130.58512 243.5447,275.37098 150.9422,387.12468 C 1434.8325,1031.8192 1142.8257,1251.6221 951.13841,1199.7585 759.4511,1147.8949 557.57751,1045.7112 472.69183,1123.5066 383.48469,1205.3153 -27.05334,816.64703 97.960122,652.72103 224.51696,486.01662 361.87743,64.624928 361.87743,64.624928 Z"
         id="path290"
         inkscape:connector-curvature="0"
         style="stroke-opacity:0.67563973" />
      <path
         d="m 323.59023,0.72471015 c 0,0 639.6937,-26.24325915 718.69107,237.11555985 78.9974,263.35883 365.0544,146.96225 406.4046,293.61576 41.3502,146.96225 274.0221,305.03929 152.1316,421.74461 C 1478.927,1069.906 1184.2298,1320.6063 979.63886,1257.3137 775.04796,1194.3299 564.2854,1066.201 466.46441,1175.4965 368.64343,1284.7919 -116.75849,838.65653 26.115689,658.65865 168.98987,478.66077 323.59023,0.72471015 323.59023,0.72471015 Z"
         id="path292"
         inkscape:connector-curvature="0"
         style="stroke-opacity:0.67513021" />
    </g>
    <g
       id="g311"
       transform="translate(-1106,492)"
       style="stroke:#3535ff">
      <path
         d="m 978.76238,590.26856 c 0,0 812.32752,-250.69216 718.89682,-51.13621 -82.5303,176.69017 -305.2067,109.34003 108.4834,422.39343 110.5596,83.97982 -320.7785,156.31882 -510.7542,176.27442 -189.9756,19.9556 -404.86607,126.8012 -455.73386,-55.7094 C 788.78675,899.58029 978.76238,590.26856 978.76238,590.26856 Z"
         id="path295"
         inkscape:connector-curvature="0"
         style="stroke-opacity:0.6828861" />
      <path
         d="m 918.34639,508.17356 c 0,0 517.81621,-115.24613 708.37261,-64.07185 69.9051,18.72229 116.5086,43.68535 108.2235,96.10778 -15.0166,97.35594 -59.031,111.91773 -46.6034,180.56615 11.9098,65.73606 130.4897,146.03391 243.8914,289.57156 71.9765,91.1151 -374.3811,204.6971 -585.6501,209.6897 -211.269,5.4086 -424.09148,63.6558 -512.63805,-63.6558 C 800.28429,1108.1192 695.68542,942.53084 754.71647,831.44521 828.76418,690.81997 918.34639,508.17356 918.34639,508.17356 Z"
         id="path297"
         inkscape:connector-curvature="0"
         style="stroke-opacity:0.6860847" />
      <path
         d="m 855.35313,422.50753 c 0,0 608.92667,-99.86396 792.53837,-0.4161 64.3159,34.95238 116.1836,65.74377 125.0011,115.25965 17.1163,95.28686 21.2658,101.52836 40.4568,181.00343 20.7471,87.79706 196.5786,189.32542 245.8528,335.79259 34.2327,102.3605 -428.9458,252.9887 -662.869,243.4184 -233.9233,-9.5703 -488.5937,17.4762 -572.10068,-70.737 C 761.99128,1214.3455 546.74036,973.83981 634.91544,839.85566 738.13215,683.40212 855.35313,422.50753 855.35313,422.50753 Z"
         id="path299"
         inkscape:connector-curvature="0"
         style="stroke-opacity:0.69446333" />
      <path
         d="m 793.45906,337.97041 c 0,0 699.02734,-86.94855 874.69104,63.65133 59.0727,50.75466 116.0727,87.7806 141.4637,134.37504 50.2636,93.18888 102.6,91.10877 127.4727,181.80152 30.0546,110.24577 255.9819,237.54843 247.6909,382.324 -6.7363,116.9021 -482.9455,301.1998 -738.4092,276.6545 -255.4636,-24.9613 -530.10003,-37.858 -629.07278,-79.0441 C 734.9045,1317.2857 400.159,1004.8533 517.78629,848.84515 648.88631,675.7801 793.45906,337.97041 793.45906,337.97041 Z"
         id="path301"
         inkscape:connector-curvature="0"
         style="stroke-opacity:0.6843014" />
      <path
         d="m 728.17065,254.28248 c 0,0 792.00705,-74.12609 958.39075,127.84667 54.4246,66.21375 117.1424,109.93981 158.0904,153.66588 85.006,90.78363 183.4886,80.7891 214.07,182.81658 39.9113,132.01106 308.9242,285.26049 249.8347,429.34829 -53.9063,130.7617 -536.9891,350.2249 -814.8136,310.2468 -277.8244,-39.9781 -572.23544,-92.8658 -687.82286,-87.4521 C 702.77252,1422.393 248.19778,1037.6036 396.43994,859.78432 555.04869,669.47184 728.17065,254.28248 728.17065,254.28248 Z"
         id="path303"
         inkscape:connector-curvature="0"
         style="stroke-opacity:0.67524342" />
      <path
         d="m 668.57424,168.58954 c 0,0 885.60366,-61.59832 1041.67316,191.87044 50.2948,81.57616 117.7002,131.52074 174.2171,172.72502 119.7743,87.81923 264.9552,70.33862 301.2504,183.13014 49.7763,153.9958 358.8043,329.63426 251.9926,475.30596 -104.2192,142.3421 -591.6123,398.7243 -891.3072,343.7852 -299.6949,-54.939 -622.72243,-159.8226 -746.12622,-94.8947 C 665.46322,1511.6826 101.85014,1067.1758 280.73378,867.81371 466.87646,660.12749 668.57424,168.58954 668.57424,168.58954 Z"
         id="path305"
         inkscape:connector-curvature="0"
         style="stroke-opacity:0.6736583" />
      <path
         d="m 607.25145,85.856005 c 0,0 978.91765,-48.67226 1123.42455,255.841365 46.0971,96.92852 118.6096,152.67282 190.604,191.77703 154.3479,84.03245 345.9878,59.90432 387.9415,183.87298 59.5637,175.96894 408.6592,371.07402 253.2755,521.66682 -154.8658,150.1768 -644.8426,446.3704 -966.487,376.482 C 1274.3657,1545.6078 935.62911,1407.9111 793.19401,1512.7436 643.50766,1622.9842 -45.36029,1099.2374 164.40777,878.34024 376.76556,653.69904 607.25145,85.856005 607.25145,85.856005 Z"
         id="path307"
         inkscape:connector-curvature="0"
         style="stroke-opacity:0.67563973" />
      <path
         d="m 543.21328,0.9772216 c 0,0 1073.85852,-35.3872226 1206.47202,319.7339684 132.6134,355.12119 612.8193,198.16845 682.2342,395.92058 69.4149,198.16845 460.0031,411.32443 255.3846,568.69353 -204.6185,157.369 -699.329,495.4211 -1042.7772,410.0754 C 1301.0787,1610.4714 947.27001,1437.6985 783.05721,1585.0759 618.84441,1732.4532 -196.00334,1130.8704 43.840598,888.15572 283.68453,645.441 543.21328,0.9772216 543.21328,0.9772216 Z"
         id="path309"
         inkscape:connector-curvature="0"
         style="stroke-opacity:0.67513021" />
    </g>
    <rect
       id="Rectangle-2"
       transform="matrix(1,0,0,-1,0,2178)"
       x="0"
       y="687"
       width="1440"
       height="804"
       style="fill:url(#linearGradient426)" />
    <rect
       id="rect314"
       x="-5"
       y="6"
       width="1440"
       height="804"
       style="fill:url(#linearGradient428)" />
    <circle
       id="Oval-2"
       cx="263.43338"
       cy="377.83572"
       r="42"
       style="fill:#fff66e" />
    <circle
       id="circle317"
       cx="343.88678"
       cy="592.8302"
       r="11.5"
       style="fill:#e21111" />
    <circle
       id="circle319"
       cx="579.13666"
       cy="873.34186"
       r="10.5"
       style="fill:#e21111" />
    <circle
       id="circle321"
       cx="1305.7982"
       cy="694.07068"
       r="10.5"
       style="fill:#e21111" />
    <circle
       id="circle323"
       cx="966.17828"
       cy="293.9888"
       r="10.5"
       style="fill:#e21111" />
    <g
       id="house-outline"
       transform="translate(48,224)"
       style="fill:#4a4a4a;fill-rule:nonzero">
      <path
         d="m 234.9546,149.31922 c -1.0063,0 -1.78563,0.70508 -1.78563,1.62408 v 22.18425 h -12.66232 v -9.05873 c 0,-0.84982 -0.77922,-1.59271 -1.72124,-1.59271 h -9.15544 c -1.00712,0 -1.81823,0.7428 -1.81823,1.59271 v 9.05873 h -12.63043 v -21.4477 c 0,-0.85626 -0.77852,-1.5675 -1.78563,-1.5675 -0.94131,0 -1.72054,0.71124 -1.72054,1.5675 v 23.07187 c 0,0.85616 0.77923,1.5675 1.72054,1.5675 h 16.23429 c 0.94131,0 1.72053,-0.71134 1.72053,-1.5675 v -9.05882 h 5.64917 v 9.05882 c 0,0.85616 0.77923,1.5675 1.78574,1.5675 h 16.16919 c 0.94141,0 1.72054,-0.71134 1.72054,-1.5675 v -23.80833 c 0,-0.919 -0.77913,-1.62417 -1.72054,-1.62417 z"
         id="path325"
         inkscape:connector-curvature="0" />
      <path
         d="M 245.16921,151.41132 231.0688,137.65956 v -9.37647 c 0,-0.97606 -0.81239,-1.72987 -1.81949,-1.72987 -0.94267,0 -1.72233,0.75391 -1.72233,1.72987 V 134.22 l -11.63134,-11.36223 c -0.3564,-0.35005 -0.77977,-0.53855 -1.20192,-0.53855 -0.48729,0 -0.91004,0.19519 -1.26705,0.53855 l -29.20843,28.36504 c -0.70075,0.67983 -0.74715,1.77031 0,2.39632 0.64948,0.72695 1.76822,0.67982 2.46897,0 l 28.00651,-27.1333 27.94138,27.38909 c 0.29106,0.28275 0.71462,0.4443 1.26705,0.4443 0.48729,0 0.90934,-0.16155 1.26706,-0.4443 0.65009,-0.6327 0.69862,-1.77699 0,-2.4636 z"
         id="path327"
         inkscape:connector-curvature="0" />
    </g>
    <g
       id="Group"
       transform="translate(715,408)">
      <g
         id="key-(1)"
         transform="translate(19,19)"
         style="fill:#000000;fill-rule:nonzero" />
    </g>
    <circle
       id="circle338"
       cx="394.28775"
       cy="878.93396"
       r="42"
       style="fill:#fff66e" />
    <g
       id="horseshoe"
       transform="translate(96,873)"
       style="fill:#000000;fill-rule:nonzero">
      <path
         d="m 321.35853,13.471553 h -3.6496 c 2.96585,-5.3573487 3.54733,-14.614779 -0.59317,-22.2492813 -3.69051,-6.8118057 -10.38193,-10.5630727 -18.82656,-10.5630727 -8.44464,0 -15.13898,3.751267 -18.82657,10.5630727 -4.13174,7.6345023 -3.54733,16.8470072 -0.59609,22.2492813 h -3.6496 c -0.51428,0 -0.92921,0.40152 -0.92921,0.892891 v 6.404671 c 0,0.491371 0.41493,0.890084 0.92921,0.890084 h 12.59974 c 0.51135,0 0.9292,-0.398713 0.9292,-0.890084 0.006,-0.06177 0.006,-0.120737 0,-0.179701 v -6.253048 c 0,-0.165663 -0.0497,-0.328517 -0.14025,-0.468909 -2.78761,-4.3324888 -3.62331,-13.13785788 -0.31558,-18.8489934 2.10093,-3.5912199 5.43787,-5.4303516 9.99915,-5.4303516 4.56127,0 7.89529,1.8391317 10.02252,5.4556226 3.31065,5.70551952 2.5217,14.5193123 -0.2659,18.8461854 -0.0935,0.1432 -0.14026,0.308862 -0.14026,0.474524 v 6.404671 c 0,0.491371 0.41493,0.890084 0.9292,0.890084 h 12.52377 c 0.51428,0 0.9292,-0.398713 0.9292,-0.890084 v -6.404671 c 0,-0.491371 -0.41492,-0.892891 -0.9292,-0.892891 z m -0.92628,6.401863 h -10.72381 v -5.259074 c 3.02722,-4.9080954 3.83661,-14.18798838 0.22208,-20.4354204 -2.39606,-4.1443639 -6.42844,-6.3765916 -11.64132,-6.3765916 -5.21581,0 -9.24527,2.2322277 -11.61503,6.3765916 -3.61454,6.24743202 -2.7876,15.527325 0.22208,20.4354204 v 5.259074 h -10.75011 v -4.613273 h 4.37718 c 0.51136,-0.0056 0.92628,-0.40152 0.92628,-0.898507 0,-0.179701 -0.0584,-0.356595 -0.16655,-0.50541 -3.30773,-4.5458846 -4.30998,-14.16833298 -0.18409,-21.8112594 2.38729,-4.3774126 7.29628,-9.5999856 17.19024,-9.5999856 9.89395,0 14.80002,5.222573 17.18731,9.5999856 4.14342,7.64292642 3.14117,17.2653748 -0.16363,21.8000284 -0.29221,0.407135 -0.18994,0.963087 0.23376,1.243871 0.15486,0.103889 0.33895,0.160046 0.52596,0.160046 h 4.37719 z"
         id="path340"
         inkscape:connector-curvature="0" />
    </g>
    <circle
       id="circle343"
       cx="947.55853"
       cy="1203.3892"
       r="42"
       style="fill:#fff66e" />
    <g
       id="gift"
       transform="translate(749,1123)"
       style="fill:#000000;fill-rule:nonzero">
      <path
         d="m 223.12927,66.656445 h -10.08525 c 0.72356,-0.496649 1.34512,-0.990095 1.77862,-1.432273 2.56913,-2.5986 2.56913,-6.828134 0,-9.426734 -2.49581,-2.524903 -6.84993,-2.528107 -9.34893,0 -1.38019,1.393824 -5.049,7.068448 -4.54219,10.859007 h -0.2295 c 0.50362,-3.790559 -3.162,-9.465183 -4.54219,-10.859007 -2.499,-2.528107 -6.85312,-2.524903 -9.34894,0 -2.56912,2.5986 -2.56912,6.828134 -0.003,9.426734 0.43669,0.442178 1.05825,0.935624 1.78182,1.432273 h -10.08525 c -1.75632,0 -3.1875,1.438683 -3.1875,3.204193 v 8.01048 c 0,0.884357 0.714,1.602096 1.59375,1.602096 h 1.59375 v 19.225153 c 0,1.765513 1.43118,3.204193 3.1875,3.204193 h 38.25 c 1.75631,0 3.1875,-1.43868 3.1875,-3.204193 V 79.473214 h 1.59375 c 0.87975,0 1.59375,-0.717739 1.59375,-1.602096 v -8.01048 c 0,-1.76551 -1.43119,-3.204193 -3.1875,-3.204193 z m -34.05844,-8.600051 c 0.64706,-0.653655 1.5045,-1.012525 2.41613,-1.012525 0.90843,0 1.76587,0.35887 2.41293,1.012525 2.14838,2.172442 4.284,7.722103 3.54132,8.494313 0,0 -0.13388,0.105738 -0.58969,0.105738 -2.20256,0 -6.40688,-2.30061 -7.78069,-3.691229 -1.33556,-1.352169 -1.33556,-3.556653 0,-4.908822 z m 10.15219,40.641973 H 181.69177 V 79.473214 h 17.53125 z m 0,-22.429345 h -20.71875 v -6.408384 h 18.34725 2.3715 z m 8.51062,-18.212628 c 1.29413,-1.304107 3.53813,-1.300902 4.82907,0 1.33556,1.352169 1.33556,3.556653 0,4.908822 -1.37382,1.390619 -5.57813,3.691229 -7.78069,3.691229 -0.45581,0 -0.58969,-0.102534 -0.59288,-0.105738 -0.7395,-0.77221 1.39613,-6.321871 3.5445,-8.494313 z m 12.20813,40.641973 H 202.41052 V 79.473214 h 17.53125 z m 3.1875,-22.429345 h -20.71875 v -6.408384 h 2.3715 18.34725 z"
         id="path345"
         inkscape:connector-curvature="0" />
    </g>
    <g
       id="building"
       transform="translate(1324,1213)"
       style="fill:#000000;fill-rule:nonzero" />
  </g>
  <circle
     style="fill:#fff66e;stroke-width:1.1645509"
     id="circle72"
     cx="1168.0558"
     cy="556.67981"
     r="39.59473" />
  <path
     inkscape:connector-curvature="0"
     d="m 1189.7295,569.15799 c -1.0162,-0.71486 -2.1888,-1.09889 -3.3732,-1.16153 -4.4645,-2.92269 -7.3889,-5.11637 -9.0963,-6.8233 l -5.2449,-5.24336 3.1827,-3.56165 c 0.6032,0.3404 1.2511,0.56468 1.8992,0.6572 0.4889,0.0814 0.8149,0.0814 1.141,0.0814 0.652,0 0.8149,0 1.467,0.57032 -0.326,0.24442 -0.4891,0.65185 -0.4891,1.05917 0,0.40733 0.1631,0.89628 0.4891,1.22216 l 2.8525,2.85175 c 0.4075,0.48885 1.0595,0.7333 1.7116,0.7333 0.652,0 1.3039,-0.24445 1.7114,-0.81475 l 5.7867,-5.78494 c 0.489,-0.40742 0.7334,-1.05917 0.7334,-1.71102 0,-0.65185 -0.2444,-1.22217 -0.7334,-1.71104 l -2.8526,-2.85174 c -0.326,-0.32588 -0.7336,-0.48886 -1.141,-0.48886 -0.4076,0 -0.8151,0.24442 -1.1412,0.48886 -0.6521,-0.57032 -0.6521,-0.73329 -0.6521,-1.38515 0,-0.32587 0,-0.73329 -0.163,-1.22216 -0.1629,-1.14072 -0.7334,-2.28135 -1.63,-3.17763 l -2.934,-2.93318 c -1.7115,-1.71104 -2.5265,-2.52578 -4.727,-3.5035 -4.727,-2.1999 -9.5356,-1.79248 -16.5447,1.38514 -0.4074,0.16299 -0.5703,0.48886 -0.489,0.89628 0.082,0.40743 0.4076,0.65186 0.815,0.65186 h 1.0596 c 3.5861,0 5.4604,0 8.7205,3.25907 1.4275,1.42706 1.4686,3.61522 0.1897,5.22513 -0.1724,0.026 -0.3036,0.10329 -0.4342,0.23382 l -3.6204,4.03963 -2.7367,-2.73592 c -3.0078,-3.00709 -5.1235,-5.85214 -6.7519,-9.02014 -0.085,-1.60303 -0.7289,-3.10284 -1.887,-4.26066 -1.3855,-1.38505 -3.3415,-2.03691 -5.2975,-1.87392 -0.2446,0.0814 -0.489,0.24444 -0.5705,0.40742 -0.163,0.24444 -0.163,0.57032 0,0.81474 l 2.282,4.07392 c -0.489,1.05916 -1.6301,1.71102 -2.771,1.62957 l -2.3635,-3.91101 c -0.082,-0.24443 -0.4076,-0.40742 -0.6521,-0.40742 -0.2444,-0.0814 -0.489,0.0814 -0.652,0.32588 -1.956,2.93318 -1.2226,6.84411 1.7116,8.88101 1.0107,0.72184 2.1495,1.12325 3.303,1.20555 0.013,0.006 0.024,0.0122 0.038,0.0167 3.1785,1.62959 6.0311,3.74794 9.0465,6.76267 l 2.9808,2.91209 -17.3248,19.33136 c -0.652,0.65185 -0.9779,1.54804 -0.9779,2.44434 0,0.89628 0.3259,1.71102 0.9779,2.36287 l 1.1411,1.14071 c 0.652,0.57031 1.4671,0.89629 2.282,0.89629 0.815,0 1.7116,-0.32588 2.3636,-0.97772 l 17.3049,-19.36489 5.0262,5.0248 c 1.7099,1.70941 3.9079,4.72013 6.8378,9.11313 0.1048,1.5681 0.7471,3.03221 1.8828,4.16768 1.2225,1.22216 2.8526,1.87402 4.5641,1.87402 0.2445,0 0.4889,0 0.652,0 0.2445,0 0.489,-0.163 0.652,-0.40742 0.163,-0.24444 0.163,-0.57032 0,-0.81475 l -2.3635,-3.99237 c 0.5704,-1.05917 1.6301,-1.71102 2.8525,-1.62958 l 2.2821,3.91092 c 0.082,0.24444 0.4074,0.40742 0.652,0.40742 0.3259,-0.0814 0.5704,-0.16298 0.7334,-0.40742 1.956,-2.93329 1.1409,-6.8442 -1.7115,-8.88112 z m -18.5822,-29.82078 c -2.6079,-2.52576 -4.5639,-3.3406 -6.7645,-3.58503 4.6456,-1.4666 8.0686,-1.38515 11.4916,0.16299 1.956,0.81475 2.608,1.46659 4.3196,3.17762 l 2.934,2.93319 c 0.652,0.65186 1.0595,1.4666 1.1411,2.28134 0.082,0.40742 0.082,0.7333 0.082,0.97772 0,0.89629 0.082,1.54806 1.0595,2.52578 0.3259,0.32589 0.8149,0.48886 1.2224,0.48886 0.4891,0 0.8966,-0.16297 1.1412,-0.48886 l 2.8524,2.85175 c 0.163,0.16298 0.2445,0.32587 0.2445,0.57031 0,0.24443 -0.082,0.40741 -0.2445,0.57031 l -5.7865,5.78493 c -0.326,0.32589 -0.8149,0.32589 -1.141,0 l -2.8526,-2.85174 c 0.3259,-0.24443 0.489,-0.65185 0.4076,-1.14071 0,-0.40742 -0.163,-0.89629 -0.489,-1.22216 -0.9781,-0.97774 -1.6302,-1.05919 -2.5265,-1.05919 -0.2446,0 -0.5705,0 -0.978,-0.0814 -0.8966,-0.0814 -1.6302,-0.48887 -2.2821,-1.14071 l -3.5045,-3.50351 c 1.793,-2.1998 1.63,-5.29597 -0.326,-7.25144 z m -25.5912,-1.95545 1.7116,2.93319 c 0.163,0.24444 0.4076,0.40742 0.652,0.40742 h 0.4076 c 1.8745,0.0814 3.586,-0.89628 4.4009,-2.52578 l 0.1631,-0.40741 c 0.163,-0.24443 0.163,-0.48887 0,-0.73329 l -1.7931,-3.09618 c 0.978,0.16298 1.8746,0.65185 2.6081,1.38514 0.8403,0.91005 1.3783,2.06097 1.4101,3.29727 -0.017,0.0628 -0.024,0.13024 -0.024,0.20633 0,0.37734 -0.045,0.74543 -0.13,1.10023 -0.3074,1.17978 -1.0446,2.2084 -2.0705,2.89224 -1.6301,1.05917 -3.8305,1.05917 -5.4606,-0.0814 -1.7115,-1.22235 -2.4449,-3.42225 -1.8746,-5.37771 z m 14.5072,13.52524 c -2.4451,-2.52578 -4.8901,-4.48123 -7.4981,-6.02938 0.4075,-0.16297 0.8965,-0.40741 1.304,-0.65184 1.2225,-0.81474 2.0374,-1.87402 2.5264,-3.17762 1.5486,2.6073 3.5045,5.05162 5.9495,7.49596 l 2.7994,2.79856 -2.1952,2.44957 z m -10.8396,28.02829 c -0.6521,0.65186 -1.7115,0.7333 -2.3635,0.0814 l -1.1411,-1.05918 c -0.3259,-0.32588 -0.4889,-0.7333 -0.4889,-1.14072 0,-0.48887 0.163,-0.89628 0.5703,-1.30361 l 0.4617,-0.51627 1.1684,1.16812 c 0.163,0.163 0.3259,0.24443 0.5705,0.24443 0.2446,0 0.4076,-0.0814 0.5705,-0.24443 0.3259,-0.32587 0.3259,-0.81474 0,-1.1407 l -1.2324,-1.2321 1.0769,-1.20469 1.2966,1.29605 c 0.163,0.163 0.3259,0.24445 0.5704,0.24445 0.2445,0 0.4076,-0.0814 0.5705,-0.24445 0.3259,-0.32586 0.3259,-0.81474 0,-1.1407 l -1.3602,-1.35994 20.9635,-23.44767 3.423,3.42205 -3.3634,3.76187 c -0.096,0.0406 -0.181,0.10283 -0.2656,0.18753 l -3.2601,3.66648 c -0.093,0.093 -0.1585,0.19966 -0.1985,0.31166 z m 19.5612,-19.39066 2.2303,-2.49589 5.2667,5.26514 c 1.467,1.54805 3.9935,3.5035 7.661,5.94782 -0.489,0.163 -0.978,0.40743 -1.467,0.73331 -1.0112,0.63179 -1.7274,1.50899 -2.2264,2.4787 -0.012,0.0138 -0.014,0.0279 -0.021,0.0419 -0.029,0.0583 -0.058,0.11696 -0.086,0.17597 -0.041,0.0835 -0.078,0.16806 -0.1153,0.25341 -0.026,0.0578 -0.05,0.11552 -0.073,0.17367 0,0.008 -0.012,0.0168 -0.012,0.0251 -0.026,0.0638 -0.051,0.12757 -0.076,0.19174 -0.463,-0.67879 -0.9082,-1.31937 -1.3366,-1.92281 l 1.0921,-1.09183 c 0.326,-0.32588 0.326,-0.81475 0,-1.14072 -0.326,-0.32588 -0.815,-0.32588 -1.141,0 l -0.9086,0.90832 c -0.3387,-0.45946 -0.6658,-0.89285 -0.9814,-1.30027 l 0.749,-0.74877 c 0.326,-0.32588 0.326,-0.81474 0,-1.14071 -0.326,-0.32588 -0.815,-0.32588 -1.141,0 l -0.6222,0.62196 c -0.599,-0.72173 -1.1516,-1.33597 -1.6598,-1.84412 z m 21.8411,16.2945 -1.7115,-2.9332 c -0.1631,-0.24444 -0.4076,-0.40743 -0.6521,-0.40743 h -0.4076 c -1.8745,-0.16297 -3.586,0.89629 -4.4009,2.52577 l -0.163,0.40744 c -0.1631,0.24442 -0.1631,0.48885 0,0.73329 l 1.7929,3.09618 c -0.978,-0.16299 -1.8746,-0.65185 -2.6081,-1.38515 -0.8243,-0.89285 -1.3571,-2.01752 -1.4073,-3.22699 0.014,-0.0596 0.022,-0.12355 0.022,-0.19507 0,-1.03215 0.3277,-1.99852 0.899,-2.81708 0.351,-0.4883 0.7899,-0.91577 1.3014,-1.25673 0.8151,-0.57032 1.7116,-0.81474 2.6896,-0.81474 0.978,0 1.956,0.32587 2.7709,0.89627 1.7118,1.22207 2.4453,3.42197 1.8748,5.37744 z"
     id="path74"
     style="stroke-width:1.1645509" />
  <circle
     style="fill:#fff66e;stroke-width:2.07526374"
     id="circle49"
     cx="1297.9778"
     cy="1171.4786"
     r="38.392384" />
  <path
     inkscape:connector-curvature="0"
     d="m 1317.1269,1160.7154 h -7.3742 v -2.4098 c -0.013,-1.3275 -1.069,-2.3959 -2.3663,-2.3914 h -28.8284 c -1.2934,0 -2.3704,1.0678 -2.3704,2.3914 v 7.9469 c 0.013,1.3306 1.0701,2.4027 2.3706,2.4035 h 28.828 c 1.2996,-9e-4 2.3558,-1.0735 2.3665,-2.4033 v -2.398 h 4.8725 v 8.0178 l -22.7765,6.3525 c -0.2382,0.064 -0.4064,0.2818 -0.4123,0.5338 v 5.8705 h -1.8168 c -0.2989,0 -0.5291,0.2904 -0.5291,0.5964 v 13.7242 c 0,0.2957 0.2252,0.5395 0.5142,0.5447 0,10e-5 0.01,10e-5 0.015,10e-5 h 6.7466 c 0.2989,0 0.5742,-0.2391 0.5742,-0.5448 v -13.7242 c -0.013,-0.3207 -0.261,-0.5794 -0.5742,-0.5964 h -1.862 v -3.8958 l 22.7763,-6.3518 c 0.2385,-0.065 0.4067,-0.2823 0.4124,-0.5345 v -12.5837 c -0.021,-0.3095 -0.2631,-0.5527 -0.5659,-0.5481 z m -38.5689,-3.6933 h 28.8282 c 0.6996,-0.01 1.2724,0.5677 1.2837,1.2834 v 2.1956 c -1.173,-0.088 -1.7788,-0.451 -2.4495,-0.8328 -0.8177,-0.4656 -1.7498,-0.9935 -3.5121,-0.9935 -1.7624,0 -2.6918,0.5277 -3.5099,0.9932 -0.7707,0.4391 -1.5003,0.8534 -2.9817,0.8534 -1.4814,0 -2.2106,-0.4145 -2.9811,-0.8534 -0.8179,-0.4654 -1.7452,-0.9932 -3.5074,-0.9932 -1.7621,0 -2.6893,0.5278 -3.5072,0.9935 -0.7709,0.4389 -1.4992,0.8534 -2.9805,0.8534 -1.4814,0 -2.2217,-0.4146 -2.9927,-0.8534 -0.7292,-0.4156 -1.5338,-0.8788 -2.9774,-0.9744 v -0.3884 c 0.013,-0.7165 0.5874,-1.2887 1.2876,-1.2834 z m 28.8282,10.5258 h -28.8282 c -0.7025,-10e-5 -1.2755,-0.5764 -1.2877,-1.2952 v -6.449 c 1.173,0.088 1.7806,0.4511 2.4512,0.8329 0.8176,0.4656 1.7507,0.9929 3.513,0.9929 1.7623,0 2.6922,-0.5275 3.5099,-0.9931 0.7708,-0.439 1.5006,-0.8534 2.9819,-0.8534 1.4814,0 2.2106,0.4145 2.9814,0.8534 0.8178,0.4656 1.745,0.9931 3.5074,0.9931 1.7623,0 2.6894,-0.5275 3.5073,-0.9931 0.7711,-0.439 1.4992,-0.8534 2.9807,-0.8534 1.4815,0 2.2196,0.4145 2.991,0.8534 0.7292,0.4154 1.5323,0.8789 2.9759,0.9747 v 4.6419 c -0.01,0.718 -0.5818,1.2946 -1.2836,1.295 h -2e-4 z m -17.2131,30.8389 v -9.2333 h 5.6845 v 9.2333 z m 5.6845,-10.3413 h -5.6845 v -2.3082 h 5.6845 z m 20.7525,-14.6215 -22.7764,6.3519 c -0.2385,0.064 -0.4065,0.2822 -0.4124,0.5345 v 4.3189 h -0.9022 v -5.4477 l 22.7764,-6.3518 c 0.2383,-0.065 0.4064,-0.2821 0.4123,-0.5343 v -9.0008 c -0.013,-0.3095 -0.2632,-0.5526 -0.5659,-0.5479 h -5.3892 v -0.9234 h 6.8574 z"
     id="path74-4"
     style="stroke-width:2.07526374" />
  <ellipse
     style="fill:#fff66e;stroke-width:2.12560034"
     id="circle63"
     cx="1140.0822"
     cy="325.43079"
     rx="39.635654"
     ry="39.014019" />
  <path
     inkscape:connector-curvature="0"
     d="m 1125.377,331.07697 h 11.8581 v 4.47887 h -0.6187 c -0.3416,0 -0.6188,0.22264 -0.6188,0.55985 v 10.58638 c 0,2.81086 2.3083,5.08957 5.1557,5.08957 2.8474,0 5.1557,-2.27871 5.1557,-5.08957 v -10.58638 c 0,-0.33721 -0.2771,-0.55985 -0.6188,-0.55985 h -0.6186 v -4.47887 h 11.8581 c 1.9339,10e-4 3.5031,-1.54464 3.5058,-3.45377 v -23.77565 c 0,-0.33719 -0.277,-0.55982 -0.6187,-0.55982 h -37.3269 c -0.3417,0 -0.6188,0.22263 -0.6188,0.55982 v 23.77556 c 0,1.90922 1.572,3.455 3.5059,3.45386 z m 19.6948,15.6251 c 0,2.13628 -1.7543,3.86806 -3.9183,3.86806 -2.164,0 -3.9183,-1.73178 -3.9183,-3.86806 v -9.92473 h 7.8367 v 9.92473 z m -1.2374,-11.14623 h -5.3619 v -4.47887 h 5.3619 z m 13.0956,-5.70037 h -31.553 c -1.2508,0.002 -2.2665,-0.99747 -2.2685,-2.23227 v -3.26444 h 36.0899 v 3.26444 c 0,1.2348 -1.0176,2.23426 -2.2684,2.23227 z m -22.9945,-25.34624 v 5.70037 c 0,0.33729 0.277,0.61079 0.6187,0.61079 0.3418,0 0.6188,-0.2734 0.6188,-0.61079 v -5.70037 h 8.0429 v 9.77202 c 0,0.33729 0.2769,0.61079 0.6187,0.61079 0.3417,0 0.6186,-0.2734 0.6186,-0.61079 v -9.77202 h 7.0118 v 3.66451 c 0,0.33729 0.277,0.61079 0.6188,0.61079 0.3417,0 0.6186,-0.27341 0.6186,-0.61079 v -3.66451 h 6.4962 v 18.62793 h -36.09 v -18.62793 z"
     id="path77"
     style="stroke-width:2.12560034" />
</svg>
