<?xml version="1.0" encoding="UTF-8"?>
<svg width="213px" height="175px" viewBox="0 0 213 175" version="1.1" xmlns="http://www.w3.org/2000/svg" xmlns:xlink="http://www.w3.org/1999/xlink">
    <!-- Generator: Sketch 51.1 (57501) - http://www.bohemiancoding.com/sketch -->
    <title>Group 11</title>
    <desc>Created with Sketch.</desc>
    <defs></defs>
    <g id="Тест" stroke="none" stroke-width="1" fill="none" fill-rule="evenodd">
        <g id="Group-11">
            <path d="M57.13,143.34 C47.8774584,148.394191 38.3416903,152.911661 28.57,156.87 C16.76,161.53 4.4,164.44 0.3,163.93 C0.3,163.93 -1.19,169.56 2.49,168.86 C6.17,168.16 27.73,167.36 38.49,160.49 C49.25,153.62 69.68,150.86 69.68,150.86 L57.13,143.34 Z" id="Shape" fill="#511E17" fill-rule="nonzero"></path>
            <path d="M97.82,130.54 C97.82,130.54 135.92,108.84 148.21,76.89 C160.5,44.94 185.69,99.28 181.39,107.13 C177.09,114.98 172.45,122.85 173.17,126.94 C173.89,131.03 173.41,138.94 177.98,145.94 C182.55,152.94 170.15,155.65 169.15,159.14 C168.15,162.63 156.42,176.36 150.93,174.37 C145.44,172.38 146.44,167.88 148.44,166.13 C150.44,164.38 164.66,156.87 163.66,150.13 C162.66,143.39 155.18,135.13 153.66,134.67 C152.14,134.21 169.44,138.97 148.66,151.14 C131.66,161.14 121.45,167.87 107.22,166.62 C92.99,165.37 74.02,162.11 72.02,164.1 C70.02,166.09 45.85,145.17 64.57,139.66 C83.29,134.15 97.82,130.54 97.82,130.54 Z" id="Shape" fill="#CB2027" fill-rule="nonzero"></path>
            <path d="M158.68,66.47 C158.68,66.47 161.6,66.85 165.06,63.58 C168.52,60.31 169.5,58.47 167.69,45.83 C166.48,37.41 168.88,29.08 170.62,24.46 C171.53206,22.0437983 172.927134,19.8389013 174.72,17.98 C178.07,14.5 184.39,8.59 191.56,5.29 C202.07,0.46 210.72,0.38 212.35,1.8 C213.98,3.22 206.51,5.15 207.41,13.44 C208.41,22.3 205.41,41.04 204.41,43.99 C203.41,46.94 198.5,70.45 183.58,75.51 C168.66,80.57 160.02,77.04 153.24,73.6 C146.46,70.16 158.68,66.47 158.68,66.47 Z" id="Shape" fill="#CB2027" fill-rule="nonzero"></path>
            <path d="M58.71,150.11 C55.71,142.17 46.12,115.87 45.06,100.44 C44.9817616,99.3772367 45.6165729,98.3910707 46.6163497,98.0222435 C47.6161265,97.6534163 48.7392985,97.9910456 49.37,98.85 C52.9647776,103.845569 58.3291945,107.282372 64.37,108.46 C78.63,111.23 78.63,107.27 84.58,110.84 C90.53,114.41 95.28,123.52 88.58,133.43 C83.18,141.37 67.83,148.81 61.97,151.43 C61.3659914,151.715914 60.6698669,151.735891 60.0504557,151.485087 C59.4310445,151.234282 58.944927,150.735606 58.71,150.11 Z" id="Shape" fill="#CB2027" fill-rule="nonzero"></path>
            <path d="M102.88,105.66 C103.171568,105.462117 103.560917,105.490606 103.820575,105.728824 C104.080232,105.967041 104.142086,106.352501 103.97,106.66 C100.77,113.95 91.54,134.14 86.62,135.66 C81.22,137.35 80.04,116.88 79.86,112.74 C79.8490957,112.546319 79.9157294,112.356262 80.0451891,112.211793 C80.1746488,112.067323 80.356287,111.980323 80.55,111.97 C83.58,111.66 95.5,110.38 102.88,105.66 Z" id="Shape" fill="#CB2027" fill-rule="nonzero"></path>
            <path d="M72.93,135.27 C78.04,128.94 80.82,125.22 79.55,120.5 C78.4,116.23 74.49,116.28 66.55,115.68 C62.01,115.33 57.18,108.97 53.9,103.62 C52.1875492,102.225819 50.6557201,100.623445 49.34,98.85 C48.7124111,97.9808909 47.5828939,97.6359906 46.5768558,98.0062685 C45.5708176,98.3765465 44.9344066,99.3714064 45.02,100.44 C45.9,113.31 52.72,133.74 56.7,144.78 C61.43,144.26 68.75,140.45 72.93,135.27 Z" id="Shape" fill="#FFF6D1" fill-rule="nonzero"></path>
            <path d="M62.45,146.66 C53.69321,153.00254 44.1329944,158.154228 34.02,161.98 C21.41,166.48 4.33,167.98 1.25,166.72 C1.25,166.72 -2.44,171.85 2.96,172.28 C8.36,172.71 25.65,175.09 37.96,170.34 C49.31,165.96 67.3,163.43 71.61,164.02 C71.98,164.02 71.87,164.02 71.75,163.84 C70.16,162.12 64.11,156.29 64.11,156.29 L67.57,152.84 L61.95,151.44 L62.45,146.66 Z" id="Shape" fill="#6B1D10" fill-rule="nonzero"></path>
            <path d="M54.61,138.66 C54.61,138.66 48.61,146.13 53.61,148.1 C58.61,150.07 71.8,148.94 71.8,148.94 C71.8,148.94 84.31,147.06 90.16,142.04 C93.6105149,139.144032 95.9703723,135.158025 96.85,130.74 C96.85,130.74 91.41,124.83 88.48,127.97 C87.01,129.54 80.73,138.89 72.48,141.64 C64.23,144.39 54.61,138.66 54.61,138.66 Z" id="Shape" fill="#575EAA" fill-rule="nonzero"></path>
            <path d="M68.44,118.43 C68.44,118.43 68.12,123.7 72.5,124.33" id="Shape" stroke="#232321"></path>
            <ellipse id="Oval" fill="#6B1D10" fill-rule="nonzero" transform="translate(47.095136, 100.048427) rotate(-25.470000) translate(-47.095136, -100.048427) " cx="47.0951358" cy="100.048427" rx="3.24" ry="1.85"></ellipse>
            <path d="M191.56,5.29 C189.552023,6.23339957 187.619648,7.32997237 185.78,8.57 L193.41,11.05 L194.5,16.71 C195.039361,19.4855858 197.722886,21.301438 200.5,20.77 L207.57,19.41 C207.64574,17.4086402 207.592296,15.4044788 207.41,13.41 C206.51,5.12 213.98,3.2 212.35,1.77 C210.72,0.34 202.07,0.46 191.56,5.29 Z" id="Shape" fill="#FFF6D1" fill-rule="nonzero"></path>
        </g>
    </g>
</svg>