<?xml version="1.0" encoding="UTF-8" standalone="no"?>
<!-- Created with Inkscape (http://www.inkscape.org/) -->

<svg
   xmlns:dc="http://purl.org/dc/elements/1.1/"
   xmlns:cc="http://creativecommons.org/ns#"
   xmlns:rdf="http://www.w3.org/1999/02/22-rdf-syntax-ns#"
   xmlns:svg="http://www.w3.org/2000/svg"
   xmlns="http://www.w3.org/2000/svg"
   xmlns:sodipodi="http://sodipodi.sourceforge.net/DTD/sodipodi-0.dtd"
   xmlns:inkscape="http://www.inkscape.org/namespaces/inkscape"
   width="144.99966mm"
   height="144.99997mm"
   viewBox="0 0 144.99967 144.99997"
   version="1.1"
   id="svg16"
   sodipodi:docname="fox_ring_sleep.svg"
   inkscape:version="0.92.3 (2405546, 2018-03-11)">
  <defs
     id="defs10">
    <marker
       id="Arrow2Sstart"
       inkscape:isstock="true"
       inkscape:stockid="Arrow2Sstart"
       orient="auto"
       refX="0"
       refY="0"
       style="overflow:visible">
      <path
         d="M 8.72,4.03 -2.21,0.02 8.72,-4 c -1.75,2.37 -1.74,5.62 0,8.03 z"
         id="Arrow2SstartPath"
         style="fill:#000000;fill-opacity:1;stroke:none"
         transform="matrix(0.3,0,0,0.3,-0.69,0)"
         inkscape:connector-curvature="0" />
    </marker>
    <marker
       id="Arrow2Send"
       inkscape:isstock="true"
       inkscape:stockid="Arrow2Send"
       orient="auto"
       refX="0"
       refY="0"
       style="overflow:visible">
      <path
         d="M 8.72,4.03 -2.21,0.02 8.72,-4 c -1.75,2.37 -1.74,5.62 0,8.03 z"
         id="Arrow2SendPath"
         style="fill:#000000;fill-opacity:1;stroke:none"
         transform="matrix(-0.3,0,0,-0.3,0.69,0)"
         inkscape:connector-curvature="0" />
    </marker>
  </defs>
  <sodipodi:namedview
     id="base"
     pagecolor="#ffffff"
     bordercolor="#666666"
     borderopacity="1.0"
     inkscape:pageopacity="0.0"
     inkscape:pageshadow="2"
     inkscape:zoom="0.49497475"
     inkscape:cx="298.06488"
     inkscape:cy="474.3684"
     inkscape:document-units="mm"
     inkscape:current-layer="layer1"
     showgrid="false"
     inkscape:measure-start="12.1218,276.782"
     inkscape:measure-end="541.442,276.782"
     inkscape:window-width="1920"
     inkscape:window-height="1017"
     inkscape:window-x="-8"
     inkscape:window-y="-8"
     inkscape:window-maximized="1"
     fit-margin-top="0"
     fit-margin-left="0"
     fit-margin-right="0"
     fit-margin-bottom="0" />
  <metadata
     id="metadata13">
    <rdf:RDF>
      <cc:Work
         rdf:about="">
        <dc:format>image/svg+xml</dc:format>
        <dc:type
           rdf:resource="http://purl.org/dc/dcmitype/StillImage" />
        <dc:title></dc:title>
      </cc:Work>
    </rdf:RDF>
  </metadata>
  <g
     inkscape:label="Layer 1"
     inkscape:groupmode="layer"
     id="layer1"
     transform="translate(-26.970332,-28.698036)">
    <g
       id="g67"
       transform="matrix(0.99897547,0,0,1.0367752,-0.21331281,-23.717955)">
      <g
         transform="translate(-17.008929,3.4017857)"
         id="g59">
        <ellipse
           style="fill:#ffffff;stroke:#000000;stroke-width:0.76147085;stroke-linejoin:round;stroke-miterlimit:4;stroke-dasharray:none;stroke-opacity:1"
           id="path51"
           cx="116.79464"
           cy="117.08333"
           rx="72.193451"
           ry="69.547623" />
        <ellipse
           style="fill:#ffffff;stroke:#000000;stroke-width:0.89740449;stroke-linejoin:round;stroke-miterlimit:4;stroke-dasharray:none;stroke-opacity:1"
           id="path55"
           cx="116.79463"
           cy="117.08334"
           rx="67.967735"
           ry="65.321907" />
      </g>
      <path
         transform="scale(0.26458333)"
         inkscape:connector-curvature="0"
         id="path61"
         d="m 348.57143,714.63443 c -67.4874,-6.7799 -133.6137,-40.45887 -177.32916,-90.31604 -46.01791,-52.48311 -67.9536,-116.29686 -63.91655,-185.94156 3.59685,-62.05086 32.55574,-123.24357 79.58918,-168.17905 20.61957,-19.69983 42.76075,-34.87041 70.22796,-48.11845 C 350.51687,177.04297 462.28959,188.30378 545,251.0802 c 50.37694,38.23562 85.20704,93.48584 97.91836,155.32576 5.87691,28.59082 5.85947,69.25885 -0.0421,98.39944 C 616.0199,637.41387 488.05647,728.64733 348.57143,714.63443 Z m 53.06293,-11.2699 c 32.71608,-3.18637 62.78921,-11.46843 91.22278,-25.1225 71.58336,-34.37504 122.05102,-98.0643 138.8481,-175.22373 2.77353,-12.74053 3.19127,-18.9074 3.21757,-47.49862 0.0326,-35.47487 -1.44942,-46.33087 -10.09727,-73.96205 C 612.55141,342.33996 584.0819,299.33212 551.749,271.16366 441.55556,175.16297 269.03516,187.49995 176.28574,298.01313 c -27.1041,32.29518 -44.47182,67.84403 -53.72838,109.97307 -2.83532,12.9043 -3.22103,18.64357 -3.19446,47.53348 0.0263,28.59122 0.44405,34.75809 3.21757,47.49862 9.24404,42.46361 29.15184,81.94776 57.67764,114.39496 53.43638,60.7822 138.94075,93.98003 221.37625,85.95127 z"
         style="fill:#000000;stroke:#000000;stroke-width:4.11142874;stroke-linejoin:round;stroke-miterlimit:4;stroke-dasharray:none;stroke-opacity:1" />
    </g>
    <g
       data-name="Layer 2"
       id="g52"
       transform="matrix(2.0415023,0,0,1.8206766,43.724655,60.064487)">
      <g
         data-name="Layer 1"
         id="g50">
        <path
           d="M 25.35,7 14,0 13.19,12.78 0,10.88 1.31,12.4 c 0.1,0.11 9.83,11.48 10.83,17.82 1,6.54 2.92,20.48 2.94,20.62 l 1.49,-0.2 C 16.57,50.5 14.66,36.55 13.63,29.99 12.77,24.6 6.45,16.31 3.7,12.93 l 10.91,1.57 0.75,-11.91 9.72,6 19.18,-4.4 c 0.63,1.33 2,4 3.41,4.33 -1.07,3.88 -2.48,8.38 -3.67,10.32 -2.43,4.06 -5.21,9 -7.12,12.45 -2.6,4.76 1.28,12.39 1.45,12.71 l 1.33,-0.69 c 0,-0.07 -3.68,-7.24 -1.44,-11.29 1.9,-3.43 4.67,-8.37 7.09,-12.41 C 47.73,15.57 50.73,2.8 50.86,2.25 L 51.14,1.08 Z M 45.26,4 49.11,3.12 C 48.85,4.12 48.44,5.77 47.94,7.6 47.29,7.49 46.14,5.77 45.26,4 Z"
           id="path40"
           inkscape:connector-curvature="0" />
        <path
           d="m 25.87,14.73 c 0.39,0.49 0.52,0.88 0.39,1.18 -0.33,0.77 -2.27,1.15 -3.16,1.21 l 0.07,1 c 0.34,0 3.34,-0.28 4,-1.81 A 2.11,2.11 0 0 0 26.64,14.1 Z"
           id="path42"
           inkscape:connector-curvature="0" />
        <path
           d="m 32.11,8.32 c 0.39,0.49 0.52,0.88 0.39,1.18 -0.33,0.77 -2.27,1.15 -3.16,1.21 l 0.07,1 c 0.34,0 3.34,-0.28 4,-1.81 A 2.11,2.11 0 0 0 32.88,7.69 Z"
           id="path44"
           inkscape:connector-curvature="0" />
        <path
           d="m 28.74,24.28 -0.89,0.46 A 4,4 0 0 0 29,26 a 3,3 0 0 0 1.75,0.59 3.52,3.52 0 0 0 1.62,-0.43 l -0.46,-0.89 a 2.24,2.24 0 0 1 -3.17,-0.99 z"
           id="path46"
           inkscape:connector-curvature="0" />
        <rect
           x="18.17"
           y="14.48"
           width="3.23"
           height="1"
           transform="rotate(-50.55,19.782702,14.987039)"
           id="rect48" />
      </g>
    </g>
    <path
       d="m 129.01246,52.248915 -0.94892,3.452481 0.61319,1.066551 6.49739,-2.396372 -0.85847,-1.493169 -3.56719,1.315661 v 0 c 0.19824,-0.460926 0.33517,-1.028509 0.59949,-1.643079 l 0.94415,-3.192181 -0.67453,-1.173201 -6.11517,2.255412 0.85847,1.493171 3.31239,-1.221686 v 0 c -0.26432,0.614569 -0.52389,0.968843 -0.66081,1.536423 z"
       id="path94"
       inkscape:connector-curvature="0"
       style="stroke-width:1.2833184" />
    <path
       d="m 111.31092,44.557816 -1.56744,6.13675 1.16508,2.02644 11.97557,-4.416834 -1.65564,-2.87968 -6.62479,2.443352 v 0 c 0.39648,-0.921855 0.73165,-1.950365 1.0668,-2.978876 l 1.56269,-5.876454 -1.2264,-2.133097 -11.21116,4.134908 1.5943,2.773026 5.98779,-2.208417 v 0 c -0.27384,1.135168 -0.60424,1.903377 -1.0668,2.978875 z"
       id="path96"
       inkscape:connector-curvature="0"
       style="stroke-width:1.2833184" />
    <path
       d="m 87.969908,44.246771 -1.694841,6.18374 1.165077,2.026442 11.975568,-4.416838 -1.655634,-2.879679 -6.75218,2.490346 v 0 c 0.396477,-0.921856 0.73164,-1.950364 1.066799,-2.978873 l 1.562683,-5.876453 -1.226402,-2.133097 -11.211171,4.134909 1.594313,2.773029 6.115179,-2.255412 v 0 c -0.273839,1.135166 -0.60424,1.903376 -0.9394,2.931888 z"
       id="path98"
       inkscape:connector-curvature="0"
       style="stroke-width:1.2833184" />
    <path
       style="fill:#0000ff;stroke:#000000;stroke-width:5.81443787;stroke-linejoin:round;stroke-miterlimit:4;stroke-dasharray:none;stroke-opacity:1"
       d="m 315.16442,84.394748 c -0.6381,-2.542402 1.06629,-11.633775 3.78755,-20.203051 2.72125,-8.569275 4.1449,-15.580501 3.16367,-15.580501 -0.98124,0 -6.24903,1.696554 -11.70621,3.770119 l -9.92215,3.770122 -2.08013,-4.565379 c -2.16263,-4.746451 -1.43143,-5.130707 35.3632,-18.583982 1.30375,-0.476689 3.31635,0.900746 4.47247,3.060967 1.58635,2.964111 0.90255,7.815335 -2.78728,19.774547 -2.68911,8.71578 -4.53717,16.199005 -4.10679,16.629384 0.43038,0.430382 6.04086,-1.184891 12.46773,-3.58949 11.08202,-4.146313 11.81925,-4.188711 14.28154,-0.821327 1.42797,1.952872 2.59102,4.058765 2.58456,4.679764 -0.0115,1.114558 -40.0202,16.316337 -42.88123,16.293278 -0.81221,-0.0065 -1.99883,-2.092048 -2.63693,-4.634451 z"
       id="path154"
       inkscape:connector-curvature="0"
       transform="matrix(0.26458333,0,0,0.26458333,26.970332,28.698036)" />
    <path
       style="fill:#0000ff;stroke:#000000;stroke-width:5.81443787;stroke-linejoin:round;stroke-miterlimit:4;stroke-dasharray:none;stroke-opacity:1"
       d="m 227.19133,84.306822 c -1.43683,-3.233975 -0.63556,-8.591262 3.06061,-20.463219 2.75385,-8.845276 4.71034,-16.378982 4.34776,-16.741569 -0.36259,-0.362587 -5.51657,1.255327 -11.45329,3.595363 -10.13627,3.995347 -10.94857,4.043279 -13.32993,0.786569 -1.39474,-1.907422 -2.13007,-4.124684 -1.63406,-4.927248 0.49602,-0.802564 9.2287,-4.461736 19.40597,-8.131492 17.04142,-6.144856 18.70003,-6.404366 20.98247,-3.282952 2.39766,3.279001 1.50645,7.985649 -6.48236,34.234692 -0.99359,3.264663 0.11348,3.155038 12.10888,-1.199059 l 13.20246,-4.792233 2.18826,4.802708 c 1.65216,3.626096 1.57258,5.025701 -0.32484,5.712916 -1.38221,0.500611 -10.97591,4.032353 -21.31933,7.848313 l -18.80621,6.938112 z"
       id="path156"
       inkscape:connector-curvature="0"
       transform="matrix(0.26458333,0,0,0.26458333,26.970332,28.698036)" />
    <path
       style="fill:#0000ff;stroke:#000000;stroke-width:5.81443787;stroke-linejoin:round;stroke-miterlimit:4;stroke-dasharray:none;stroke-opacity:1"
       d="m 384.03501,103.33283 c -0.58599,-0.94815 0.19762,-5.920733 1.74136,-11.05018 2.98096,-9.904969 2.50036,-10.495644 -5.93132,-7.289925 -4.0978,1.557982 -5.15705,1.439532 -4.50913,-0.504235 1.07853,-3.235576 19.19037,-10.057911 20.60878,-7.762876 0.58479,0.946202 -0.2108,5.953701 -1.76797,11.127775 -3.05903,10.164404 -3.17793,10.080658 8.23458,5.799698 1.27657,-0.478855 2.92121,0.10047 3.65477,1.287393 0.73356,1.186921 0.85917,2.158037 0.27915,2.158037 -0.58003,0 -5.59739,1.790601 -11.14969,3.979113 -5.5523,2.18851 -10.57454,3.20335 -11.16053,2.2552 z"
       id="path158"
       inkscape:connector-curvature="0"
       transform="matrix(0.26458333,0,0,0.26458333,26.970332,28.698036)" />
  </g>
</svg>
