<?xml version="1.0" encoding="UTF-8"?>
<svg width="148px" height="123px" viewBox="-40 -20 200 160" version="1.1" xmlns="http://www.w3.org/2000/svg" xmlns:xlink="http://www.w3.org/1999/xlink">
    <!-- Generator: Sketch 51.1 (57501) - http://www.bohemiancoding.com/sketch -->
    <title>Group 10</title>
    <desc>Created with Sketch.</desc>
    <defs></defs>
    <g id="Тест" stroke="none" stroke-width="1" fill="none" fill-rule="evenodd">
        <g id="Group-10" transform="translate(0.000000, -1.000000)">
            <path d="M29.25,31.92 C29.25,31.92 17.65,20.09 4.75,20.2 C-8.15,20.31 14.2,59.42 14.2,59.42 L29.25,31.92 Z" id="Shape" fill="#CB2027" fill-rule="nonzero"></path>
            <ellipse id="Oval" fill="#A11D21" fill-rule="nonzero" cx="99.06" cy="85.61" rx="48.42" ry="37.24"></ellipse>
            <path d="M24.18,39.76 C19.97,34.04 8.46,24.59 2.98,20.26 C-7.61,22.49 13.46,59.37 13.46,59.37 L24.18,39.76 Z" id="Shape" fill="#A11D21" fill-rule="nonzero"></path>
            <path d="M41.36,85.6 L47.72,103.31 L92.22,83.31 C92.22,83.31 108.22,60.11 103.06,46.17 C97.9,32.23 83.25,48.35 83.25,48.35 L41.36,85.6 Z" id="Shape" fill="#575EAA" fill-rule="nonzero"></path>
            <path d="M58.78,23.46 C61.3399867,19.8609994 63.6969896,16.1218446 65.84,12.26 C68.46,7.4 70.13,1.73 71.69,1.02 C72.27,0.76 79.41,2.4 82.63,8.84 C85.85,15.28 85.21,41.23 85.21,41.23 L58.78,23.46 Z" id="Shape" fill="#CB2027" fill-rule="nonzero"></path>
            <path d="M71.87,1.04 L71.65,1.04 C70.09,1.75 68.42,7.42 65.8,12.28 C63.6569896,16.1418446 61.2999867,19.8809994 58.74,23.48 L68.74,30.23 C69.74,30.57 70.82,30.96 71.96,31.39 C81.94,35.13 76.06,13.66 71.87,1.04 Z" id="Shape" fill="#A11D21" fill-rule="nonzero"></path>
            <path d="M95.48,45.51 C100.31,59.73 85.93,81.77 66.48,88.4 C47.03,95.03 17.84,86.33 13.01,72.11 C8.18,57.89 17.08,31.67 43.33,23.52 C66.72,16.24 90.65,31.3 95.48,45.51 Z" id="Shape" fill="#CB2027" fill-rule="nonzero"></path>
            <path d="M145.52,85.92 C147.52,92.38 145.4,100.42 138.27,107.45 C133.206478,112.66574 127.019388,116.65708 120.18,119.12 C113.842846,121.139141 107.285681,122.388125 100.65,122.84 C89.28,123.77 58.76,123.58 41.73,114.93 C23.85,105.84 20.28,93.47 20.28,93.47 C33.0970681,95.4742258 46.1822733,94.9544864 58.8,91.94 C68.06,89.61 76.64,79.94 85.74,77.13 C114.52,68.26 141.3,72.2 145.52,85.92 Z" id="Shape" fill="#CB2027" fill-rule="nonzero"></path>
            <path d="M62.73,85.04 C62.73,85.04 53.33,65.36 37.57,63.2 C29.76,62.13 15.45,65.95 12.09,68.48 C12.2850262,69.7126804 12.5827289,70.9269059 12.98,72.11 C17.81,86.33 46.98,95.02 66.45,88.4 C84.24,82.4 97.77,63.4 96.32,49.4 C88.52,50.5 82.78,47.4 74.03,50.98 C57.41,57.86 62.73,85.04 62.73,85.04 Z" id="Shape" fill="#FFF6D1" fill-rule="nonzero"></path>
            <ellipse id="Oval" fill="#6B1D10" fill-rule="nonzero" transform="translate(62.013758, 83.344724) rotate(-22.270000) translate(-62.013758, -83.344724) " cx="62.0137584" cy="83.3447236" rx="3.24" ry="1.85"></ellipse>
            <path d="M71.16,64.78 C71.16,64.78 78.86,64.38 81.39,59.37" id="Shape" stroke="#6B1D10" stroke-linecap="round"></path>
            <path d="M31.84,75.57 C31.84,75.57 39.23,77.79 43.29,73.91" id="Shape" stroke="#6B1D10" stroke-linecap="round"></path>
            <path d="M50.65,106.84 L50.32,107 C50.77,107.41 50.65,106.84 50.65,106.84 Z" id="Shape" fill="#FFF6D1" fill-rule="nonzero"></path>
            <path d="M47.3,113.49 C44.06,110.43 48.95,107.68 50.3,107 C49.3040802,105.868607 48.4355319,104.631177 47.71,103.31 C46,100.53 46.05,96.94 46.5,94.1 C37.76084,95.0564505 28.9332151,94.8445875 20.25,93.47 C20.25,93.47 23.82,105.84 41.7,114.93 C46.2945427,117.146912 51.1394564,118.802174 56.13,119.86 C52.9694035,118.055335 50.0094618,115.920021 47.3,113.49 Z" id="Shape" fill="#FFF6D1" fill-rule="nonzero"></path>
            <path d="M31.65,65.2 C25.1,53.2 28.65,38.36 32.51,28.29 C14.65,39.27 8.87,59.96 12.97,72.04 C16.75,83.16 35.42,90.91 52.7,90.57 C45.28,83.72 36.86,74.73 31.65,65.2 Z" id="Shape" fill="#791615" fill-rule="nonzero" opacity="0.36"></path>
        </g>
    </g>
</svg>