<?xml version="1.0" encoding="UTF-8"?>
<svg width="148px" height="123px" viewBox="-40 -20 200 160" version="1.1" xmlns="http://www.w3.org/2000/svg" xmlns:xlink="http://www.w3.org/1999/xlink">
    <!-- Generator: Sketch 51.1 (57501) - http://www.bohemiancoding.com/sketch -->
    <title>Group 37</title>
    <desc>Created with Sketch.</desc>
    <defs>
        <polygon id="path-1" points="0.6391 0.1522 97.472 0.1522 97.472 74.6262 0.6391 74.6262"></polygon>
        <polygon id="path-3" points="0.7748 0.78 27.2564997 0.78 27.2564997 41.0187 0.7748 41.0187"></polygon>
    </defs>
    <g id="Коммерческое-предложение" stroke="none" stroke-width="1" fill="none" fill-rule="evenodd">
        <g id="Group-37" transform="translate(0.000000, -1.000000)">
            <path d="M29.2416,31.9226 C29.2416,31.9226 17.6386,20.0976 4.7456,20.2076 C-8.1464,20.3186 14.2006,59.4266 14.2006,59.4266 L29.2416,31.9226 Z" id="Fill-1" fill="#CA2026"></path>
            <g id="Group-5" transform="translate(50.000000, 48.220000)">
                <mask id="mask-2" fill="white">
                    <use xlink:href="#path-1"></use>
                </mask>
                <g id="Clip-4"></g>
                <path d="M97.4721,37.3892 C97.4721,57.9542 75.7951,74.6262 49.0551,74.6262 C22.3151,74.6262 0.6391,57.9542 0.6391,37.3892 C0.6391,16.8242 22.3151,0.1522 49.0551,0.1522 C75.7951,0.1522 97.4721,16.8242 97.4721,37.3892" id="Fill-3" fill="#A01D20" mask="url(#mask-2)"></path>
            </g>
            <path d="M24.1786,39.7674 C19.9666,34.0094 8.4566,24.5984 2.9766,20.2624 C-7.6134,22.4954 13.4576,59.3714 13.4576,59.3714 L24.1786,39.7674 Z" id="Fill-6" fill="#A01D20"></path>
            <path d="M41.3588,85.6092 L47.7158,103.3102 L92.2138,83.3322 C92.2138,83.3322 108.2178,60.1382 103.0548,46.1992 C97.8928,32.2592 83.2418,48.3722 83.2418,48.3722 L41.3588,85.6092 Z" id="Fill-8" fill="#565EA9"></path>
            <g id="Group-12" transform="translate(58.000000, 0.220000)">
                <mask id="mask-4" fill="white">
                    <use xlink:href="#path-3"></use>
                </mask>
                <g id="Clip-11"></g>
                <path d="M0.7748,23.2397 C0.7748,23.2397 4.8608,17.5597 7.8368,12.0437 C10.4558,7.1857 12.1278,1.5117 13.6888,0.8057 C14.2678,0.5447 21.4028,2.1817 24.6258,8.6287 C27.8488,15.0747 27.2038,41.0187 27.2038,41.0187 L0.7748,23.2397 Z" id="Fill-10" fill="#CA2026" mask="url(#mask-4)"></path>
            </g>
            <path d="M71.8612,1.0017 C71.7832,1.0037 71.7232,1.0107 71.6892,1.0257 C70.1282,1.7317 68.4552,7.4057 65.8362,12.2637 C62.8602,17.7797 58.7752,23.4597 58.7752,23.4597 L68.8182,30.2157 C69.8242,30.5587 70.8912,30.9397 72.0372,31.3757 C81.9312,35.1357 76.0572,13.6617 71.8612,1.0017" id="Fill-13" fill="#A01D20"></path>
            <path d="M95.477,45.5183 C100.31,59.7353 85.921,81.7783 66.435,88.4033 C46.949,95.0273 17.798,86.3333 12.965,72.1183 C8.132,57.9013 17.036,31.6753 43.284,23.5243 C66.718,16.2473 90.644,31.3013 95.477,45.5183" id="Fill-15" fill="#CA2026"></path>
            <path d="M145.5175,85.9265 C147.5075,92.3895 145.3925,100.4205 138.2655,107.4535 C133.6845,111.9735 127.8615,116.4865 120.1755,119.1255 C114.4255,121.1005 107.4105,122.2935 100.6245,122.8465 C89.2505,123.7735 58.7325,123.5855 41.7105,114.9365 C23.8225,105.8465 20.2545,93.4805 20.2545,93.4805 C20.2545,93.4805 38.7145,96.9975 58.7745,91.9475 C68.0385,89.6145 76.6165,79.9355 85.7155,77.1345 C114.5175,68.2665 141.2915,72.2025 145.5175,85.9265" id="Fill-17" fill="#CA2026"></path>
            <path d="M62.725,85.0408 C62.725,85.0408 53.322,65.3608 37.568,63.2068 C29.753,62.1388 15.441,65.9558 12.089,68.4828 C12.298,69.7588 12.587,70.9798 12.974,72.1178 C17.807,86.3338 46.957,95.0268 66.444,88.4028 C84.236,82.3538 97.769,63.4548 96.311,49.3918 C88.512,50.4918 82.771,47.3508 74.024,50.9778 C57.404,57.8678 62.725,85.0408 62.725,85.0408" id="Fill-19" fill="#FFF5D0"></path>
            <path d="M67.2211,79.3094 C67.9761,81.1544 65.9641,83.7244 62.7261,85.0504 C59.4891,86.3764 56.2511,85.9564 55.4961,84.1124 C54.7401,82.2684 56.7531,79.6984 59.9911,78.3724 C63.2281,77.0444 66.4661,77.4654 67.2211,79.3094" id="Fill-21" fill="#6B1C0F"></path>
            <path d="M71.4872,65.2371 C71.4872,65.2371 76.7352,60.0341 79.2562,56.8271" id="Stroke-23" stroke="#6B1C0F" stroke-linecap="round"></path>
            <path d="M32.2011,74.0701 C32.2011,74.0701 39.5601,74.7101 43.6171,74.9491" id="Stroke-25" stroke="#6B1C0F" stroke-linecap="round"></path>
            <path d="M50.6386,106.8445 C50.6386,106.8445 50.5106,106.9015 50.3016,107.0055 C50.7606,107.4185 50.6386,106.8445 50.6386,106.8445" id="Fill-27" fill="#FFF5D0"></path>
            <path d="M47.3002,113.4978 C44.0562,110.4338 48.9432,107.6838 50.3012,107.0058 C49.9342,106.6758 49.1952,105.7138 47.7162,103.3098 C46.0082,100.5368 46.0562,96.9468 46.5052,94.1038 C31.7772,95.6718 20.2542,93.4798 20.2542,93.4798 C20.2542,93.4798 23.8222,105.8468 41.7102,114.9358 C45.8722,117.0508 50.8422,118.6558 56.1402,119.8668 C56.0902,119.8388 51.0242,117.0148 47.3002,113.4978" id="Fill-29" fill="#FFF5D0"></path>
            <path d="M32.5084,28.293 C14.6514,39.275 8.8654,59.961 12.9644,72.016 C16.7454,83.139 35.4154,90.881 52.6944,90.55 C45.2764,83.722 36.8574,74.73 31.6434,65.201 C25.0934,53.228 28.5994,38.363 32.5084,28.293 Z" id="Fill-31" fill="#781614" opacity="0.293191964"></path>
            <path d="M60.0409,84.3621 C59.1459,84.6681 58.5309,85.2991 58.5049,85.8741 C59.6609,85.9301 61.0059,85.7021 62.3599,85.1741 C62.3679,85.0691 62.3619,84.9651 62.3289,84.8661 C62.1109,84.2301 61.0869,84.0051 60.0409,84.3621" id="Fill-33" fill="#231F20"></path>
            <path d="M66.5585,82.3181 C66.0965,81.9371 65.1715,82.0551 64.3625,82.6361 C63.4775,83.2711 63.0695,84.2141 63.4315,84.7641 C64.7775,84.1061 65.8625,83.2361 66.5585,82.3181" id="Fill-35" fill="#231F20"></path>
        </g>
    </g>
</svg>