<?xml version="1.0" encoding="UTF-8" standalone="no"?>
<!-- Created with Inkscape (http://www.inkscape.org/) -->

<svg
   xmlns:dc="http://purl.org/dc/elements/1.1/"
   xmlns:cc="http://creativecommons.org/ns#"
   xmlns:rdf="http://www.w3.org/1999/02/22-rdf-syntax-ns#"
   xmlns:svg="http://www.w3.org/2000/svg"
   xmlns="http://www.w3.org/2000/svg"
   xmlns:sodipodi="http://sodipodi.sourceforge.net/DTD/sodipodi-0.dtd"
   xmlns:inkscape="http://www.inkscape.org/namespaces/inkscape"
   width="135.92032mm"
   height="109.87767mm"
   viewBox="0 0 135.92032 109.87767"
   version="1.1"
   id="svg167"
   inkscape:version="0.92.4 (5da689c313, 2019-01-14)"
   sodipodi:docname="hint.svg">
  <defs
     id="defs161" />
  <sodipodi:namedview
     id="base"
     pagecolor="#ffffff"
     bordercolor="#666666"
     borderopacity="1.0"
     inkscape:pageopacity="0.0"
     inkscape:pageshadow="2"
     inkscape:zoom="0.35"
     inkscape:cx="179.42859"
     inkscape:cy="252.42855"
     inkscape:document-units="mm"
     inkscape:current-layer="layer1"
     showgrid="false"
     fit-margin-top="0"
     fit-margin-left="0"
     fit-margin-right="0"
     fit-margin-bottom="0"
     inkscape:window-width="1920"
     inkscape:window-height="1017"
     inkscape:window-x="-8"
     inkscape:window-y="-8"
     inkscape:window-maximized="1" />
  <metadata
     id="metadata164">
    <rdf:RDF>
      <cc:Work
         rdf:about="">
        <dc:format>image/svg+xml</dc:format>
        <dc:type
           rdf:resource="http://purl.org/dc/dcmitype/StillImage" />
        <dc:title />
      </cc:Work>
    </rdf:RDF>
  </metadata>
  <g
     inkscape:label="Layer 1"
     inkscape:groupmode="layer"
     id="layer1"
     transform="translate(-29.179759,-70.837946)">
    <path
       style="fill:#000000;fill-rule:nonzero;stroke:none;stroke-width:2.75475597"
       d="m 162.46815,158.77319 h -10.33438 c 8.39822,-14.35739 10.04478,-39.16677 -1.67962,-59.626797 -10.45029,-18.255261 -29.39812,-28.308447 -53.310441,-28.308447 -23.91231,0 -42.86838,10.053186 -53.31032,28.308447 -11.69968,20.460027 -10.04489,45.149017 -1.68797,59.626797 h -10.33439 c -1.45626,0 -2.63127,1.07606 -2.63127,2.39291 v 17.16414 c 0,1.31685 1.17501,2.38538 2.63127,2.38538 h 35.67814 c 1.44792,0 2.63117,-1.06853 2.63117,-2.38538 0.0214,-0.16551 0.0214,-0.32362 0,-0.48163 v -16.75776 c 0,-0.44395 -0.1402,-0.88041 -0.39706,-1.25665 -7.8935,-11.61083 -10.26,-35.20872 -0.89364,-50.51423 5.9491,-9.624267 15.39818,-14.553039 28.31418,-14.553039 12.916001,0 22.356731,4.928772 28.380331,14.620759 9.3747,15.29046 7.14059,38.91093 -0.75238,50.5067 -0.26435,0.38379 -0.39705,0.82774 -0.39705,1.27171 v 17.16414 c 0,1.31685 1.1749,2.38538 2.63116,2.38538 h 35.46302 c 1.45627,0 2.63117,-1.06853 2.63117,-2.38538 V 161.1661 c 0,-1.31685 -1.1749,-2.39291 -2.63117,-2.39291 z m -2.62292,17.15663 H 129.47908 V 161.8358 c 8.57203,-13.15341 10.86404,-38.023 0.6293,-54.76576 -6.78485,-11.106661 -18.20316,-17.088902 -32.964241,-17.088902 -14.76932,0 -26.17939,5.982241 -32.88975,17.088902 -10.23517,16.74276 -7.8935,41.61235 0.6293,54.76576 v 14.09402 h -30.44063 v -12.3633 h 12.39468 c 1.44792,-0.0152 2.62282,-1.07606 2.62282,-2.40795 0,-0.48163 -0.16588,-0.95566 -0.47197,-1.35447 -9.36636,-12.18272 -12.2044,-37.97033 -0.5212,-58.45294 6.76002,-11.731219 20.66052,-25.727411 48.67686,-25.727411 28.016341,0 41.908601,13.996192 48.668621,25.727411 11.73275,20.48261 8.8947,46.27022 -0.46341,58.42284 -0.82729,1.0911 -0.53726,2.58102 0.66247,3.33351 0.4388,0.27844 0.96,0.42886 1.48934,0.42886 h 12.39468 z"
       id="path340"
       inkscape:connector-curvature="0" />
    <path
       style="fill:#0000ff;stroke-width:2.85714293"
       d="M 3.5508011,409.46131 C 2.7533748,407.38325 2.463944,389.68291 2.9076214,370.12722 l 0.8066863,-35.5558 23.3620083,-0.82646 23.362012,-0.82645 -6.798789,-14.88783 C 10.119096,244.62835 23.741963,144.98887 76.200913,79.872421 115.40113,31.213818 171.4176,5.5681165 245.14288,2.5266762 370.35685,-2.6388635 460.29956,64.808935 483.86965,181.54725 c 8.56117,42.40192 2.7798,102.44116 -13.01171,135.1258 -3.14329,6.50586 -5.71506,12.87306 -5.71506,14.14931 0,1.27626 9.59763,2.32049 21.32806,2.32049 18.16225,0 21.76705,0.82031 24.28571,5.52646 3.46409,6.47271 3.94066,65.64414 0.57143,70.95225 -1.77874,2.80238 -18.73392,3.44866 -74.95623,2.85715 l -72.65754,-0.76443 -0.80797,-35.71429 c -0.78332,-34.62283 -0.54055,-36.29457 7.94402,-54.70211 30.93035,-67.10451 18.79098,-160.46164 -26.11505,-200.83601 -26.24757,-23.59884 -52.93946,-31.602298 -98.61953,-29.570692 -26.76186,1.190229 -31.299,2.249872 -50.70991,11.843262 -46.32576,22.89544 -69.00392,67.87813 -68.62667,136.1227 0.20368,36.84465 5.07949,59.39845 18.655,86.29137 8.17728,16.19914 8.42824,17.89303 7.65303,51.65705 l -0.80149,34.90872 -73.642538,0.76266 c -58.969064,0.61071 -73.9314243,0.009 -75.0924009,-3.01563 z M 136.57145,372.03505 c 0,-23.74426 -0.9725,-28.90797 -8.47504,-45 -14.02315,-30.07794 -18.41864,-51.46195 -18.41864,-89.60649 0,-38.86082 4.51349,-60.08881 19.05753,-89.63194 27.8516,-56.57463 94.03513,-85.043022 163.50061,-70.32865 56.91005,12.054854 95.61128,53.19051 108.92371,115.7754 9.30457,43.74307 0.41229,110.85768 -18.82894,142.11139 -4.71314,7.6556 -5.75923,14.28289 -5.75923,36.48655 v 27.13177 l 59.28571,-0.77226 59.28572,-0.77226 0.82983,-23.57142 0.82983,-23.57143 h -24.16758 c -25.18091,0 -33.20637,-1.52243 -33.20637,-6.29926 0,-1.55691 5.16623,-13.31223 11.48052,-26.12289 C 490.11951,238.31181 470.63034,130.86719 406.01662,70.369567 360.12856,27.40474 290.50202,8.7931219 217.37072,19.943329 166.08277,27.763115 125.70042,48.330438 95.345268,82.092672 40.206451,143.42031 26.611533,245.9167 63.751819,320.28571 c 5.49346,11 9.982343,21.4696 9.9753,23.26574 -0.02027,5.16634 -7.395031,6.73426 -31.67506,6.73426 H 19.428593 v 24.28571 24.28572 h 58.571429 58.571428 z"
       id="path175"
       inkscape:connector-curvature="0"
       transform="matrix(0.26458333,0,0,0.26458333,29.179759,70.837946)" />
    <path
       style="fill:#1a1a1a;stroke-width:2.85714293"
       d="m 5.1428757,373.55525 v -36.73046 l 21.7053683,-1.64157 c 11.937952,-0.90289 22.240317,-2.17654 22.894146,-2.83037 0.653829,-0.65383 -2.09894,-8.62289 -6.117263,-17.70903 C 32.692416,289.92302 27.655778,264.01401 27.546026,231.93118 27.429487,197.86446 31.220476,174.89001 41.97147,144.50896 53.542221,111.81137 66.462836,91.831896 93.714304,64.49767 133.93542,24.154416 174.8419,7.9591941 243.13327,5.3414344 325.4063,2.1877264 380.27816,21.866575 427.33073,71.400699 c 23.55075,24.792788 43.06337,61.177851 52.12615,97.199181 10.53154,41.85925 6.35202,112.14328 -8.63192,145.15734 -8.31466,18.3196 -7.77323,19.38563 9.8462,19.38563 26.34443,0 29.12094,2.19211 30.90349,24.39905 0.84488,10.52563 0.85054,26.69892 0.0114,35.94066 l -1.52258,16.80314 h -72.46031 -72.46031 v -36.78734 c 0,-32.51754 0.78808,-38.5696 6.78994,-52.14286 12.32408,-27.87105 17.00191,-56.65807 15.21177,-93.61238 -0.88377,-18.24444 -3.49931,-39.06795 -5.81231,-46.27448 -12.42235,-38.70411 -35.9644,-67.55306 -66.99492,-82.097061 -15.36546,-7.201775 -18.80191,-7.657303 -57.76591,-7.657303 -41.38569,0 -41.44743,0.0098 -59.64714,9.509284 -45.58461,23.79316 -66.27247,59.49229 -70.65298,121.91929 -2.38325,33.96391 2.59479,65.69511 14.8101,94.40325 9.3412,21.95349 9.77573,24.5252 9.77573,57.85715 V 410.2857 H 78.000019 5.1428757 Z M 136.57145,371.74773 c 0,-24.3292 -0.99947,-29.5302 -9.74572,-50.71428 -12.13763,-29.39829 -15.9824,-49.88994 -15.91896,-84.84391 0.0938,-51.66558 14.22409,-91.31941 42.80753,-120.13062 27.53234,-27.751721 59.13289,-40.05893 102.85715,-40.05893 72.19465,0 123.49283,39.87465 141.3668,109.886 10.10745,39.59033 3.18214,110.05049 -14.18509,144.32303 -6.17754,12.1908 -7.18171,17.98091 -7.18171,41.41028 v 27.23783 h 60 60 V 374.57142 350.2857 l -16.42857,-0.0314 c -22.83763,-0.0437 -37.85715,-2.90775 -37.85715,-7.21892 0,-2.00503 3.97109,-12.44394 8.82466,-23.19757 14.04866,-31.12637 19.75249,-57.80145 19.70454,-92.15195 C 470.67473,127.2304 412.11636,47.940759 319.42859,22.70446 291.16219,15.008309 222.932,15.72617 192.28573,24.042152 154.45788,34.306884 129.69263,48.369999 103.5101,74.453999 76.825939,101.03775 66.132433,118.47895 53.620644,155.82414 35.97841,208.48269 38.986596,266.07975 62.10403,318.25356 c 6.065437,13.68912 9.995857,25.9882 8.734266,27.33134 -1.261589,1.34312 -13.344877,3.13149 -26.851752,3.97415 l -24.557954,1.53211 v 23.883 23.88297 h 58.571429 58.571431 z"
       id="path24"
       inkscape:connector-curvature="0"
       transform="matrix(0.26458333,0,0,0.26458333,29.179759,70.837946)" />
  </g>
</svg>
